<?xml version="1.0" encoding="UTF-8"?>
<svg version="1.1" xmlns="http://www.w3.org/2000/svg" width="1080" height="1080">
<path d="M0 0 C5.58870438 0.34216557 10.63031092 1.69361041 15.9375 3.4375 C16.61240479 3.65494873 17.28730957 3.87239746 17.98266602 4.09643555 C22.87626471 5.75252942 22.87626471 5.75252942 24 8 C24.09072287 9.7566923 24.11754144 11.5168501 24.11352539 13.27587891 C24.11341209 14.92736435 24.11341209 14.92736435 24.11329651 16.61221313 C24.10813522 17.80494843 24.10297394 18.99768372 24.09765625 20.2265625 C24.0962413 21.44451508 24.09482635 22.66246765 24.09336853 23.91732788 C24.08775639 27.8199099 24.07520179 31.72243523 24.0625 35.625 C24.05748657 38.26562417 24.05292339 40.90624924 24.04882812 43.546875 C24.03778301 50.03126945 24.02103302 56.51563068 24 63 C25.32 62.67 26.64 62.34 28 62 C28.04125 61.319375 28.0825 60.63875 28.125 59.9375 C29.18767625 56.36994401 30.91597084 54.5216793 33.4296875 51.84375 C35.25525615 49.70029626 36.56865934 47.42310716 38 45 C39.23128812 43.25745964 40.48241148 41.52881486 41.75 39.8125 C46.28774869 33.625422 50.74359632 27.38460552 55 21 C55.66 21 56.32 21 57 21 C57 20.01 57 19.02 57 18 C65.38837903 17.46457155 72.47799034 20.55241224 80 24 C82.10642868 26.10642868 81.40047904 30.62959233 81.52734375 33.54296875 C81.56866928 34.43308151 81.60999481 35.32319427 81.65257263 36.24028015 C82.09166444 46.2163706 82.31331808 56.19693592 82.50268555 66.18041992 C82.56225003 69.29941074 82.62746963 72.41824646 82.69335938 75.53710938 C82.97381861 89.35939424 83.05581834 103.17508535 83 117 C78.6956969 117.04444575 75.05282099 116.99235788 70.9375 115.6875 C70.14214844 115.44386719 69.34679687 115.20023438 68.52734375 114.94921875 C65.56811151 113.8377915 62.81786663 112.42841947 60 111 C59.98969254 110.41863785 59.97938507 109.8372757 59.96876526 109.23829651 C59.86007521 103.15428834 59.74553334 97.07040978 59.62768555 90.98657227 C59.5845358 88.71999845 59.54284784 86.4533963 59.50268555 84.18676758 C59.4444963 80.91739381 59.3809453 77.6481601 59.31640625 74.37890625 C59.29969376 73.37541641 59.28298126 72.37192657 59.26576233 71.33802795 C59.14444361 65.49681183 58.73474518 59.79690417 58 54 C57.34 54 56.68 54 56 54 C55.74347656 54.71800781 55.48695313 55.43601562 55.22265625 56.17578125 C53.92579778 59.17140001 52.35053627 61.54758982 50.4375 64.1875 C48.02799361 67.47878323 48.02799361 67.47878323 46 71 C45.34 71 44.68 71 44 71 C43.61714844 72.07894531 43.61714844 72.07894531 43.2265625 73.1796875 C41.91644476 76.19212383 40.34298992 78.4983999 38.375 81.125 C37.31539062 82.55005859 37.31539062 82.55005859 36.234375 84.00390625 C35.49703125 84.99261719 34.7596875 85.98132813 34 87 C32.53969442 89.0194086 31.08127891 91.04018568 29.625 93.0625 C27.83089287 95.55352126 26.16992186 97.83007814 24 100 C19.12507777 99.61765316 14.64987264 98.4234304 10 97 C10 96.34 10 95.68 10 95 C9.195625 94.855625 8.39125 94.71125 7.5625 94.5625 C5 94 5 94 4 93 C3.76966492 90.43112402 3.61429385 87.88788668 3.5 85.3125 C3.46011963 84.47557617 3.42023926 83.63865234 3.37915039 82.77636719 C2.67604117 66.8611541 2.38133934 50.92551555 2 35 C1.54625 35.969375 1.0925 36.93875 0.625 37.9375 C-1 41 -1 41 -3 42 C-3.89000854 43.60886159 -4.77856039 45.21854448 -5.66015625 46.83203125 C-7.82141592 50.32911322 -10.47162283 53.4150401 -13.09765625 56.5703125 C-14.96830884 58.95952381 -16.48098827 61.37662569 -18 64 C-19.00752757 65.61255685 -20.02800818 67.21710724 -21.0625 68.8125 C-21.56910156 69.60269531 -22.07570313 70.39289063 -22.59765625 71.20703125 C-23.06042969 71.79871094 -23.52320313 72.39039063 -24 73 C-24.66 73 -25.32 73 -26 73 C-26.2475 73.928125 -26.495 74.85625 -26.75 75.8125 C-28.10679678 79.27233179 -28.69445191 80.39189552 -32 82 C-37.8688086 82.69044807 -42.59896389 81.05753757 -48 79 C-48 78.34 -48 77.68 -48 77 C-49.32 77 -50.64 77 -52 77 C-51.125 72.25 -51.125 72.25 -50 70 C-49.34 70 -48.68 70 -48 70 C-47.7525 69.05125 -47.505 68.1025 -47.25 67.125 C-45.82576013 63.56440032 -45.28284113 63.48257341 -42 62 C-41.855625 61.40445313 -41.71125 60.80890625 -41.5625 60.1953125 C-40.88786571 57.56236478 -39.75239928 56.11547293 -38.0625 54 C-36.00909526 51.41684711 -34.44598921 48.96113443 -33 46 C-32 45 -31 44 -30 43 C-29.484375 42.113125 -28.96875 41.22625 -28.4375 40.3125 C-27.963125 39.549375 -27.48875 38.78625 -27 38 C-26.34 38 -25.68 38 -25 38 C-24.896875 37.443125 -24.79375 36.88625 -24.6875 36.3125 C-23.85821592 33.5230899 -22.65700944 31.3860936 -21 29 C-20.34 29 -19.68 29 -19 29 C-18.7525 28.05125 -18.505 27.1025 -18.25 26.125 C-16.82576013 22.56440032 -16.28284113 22.48257341 -13 21 C-12.85433594 20.40316406 -12.70867187 19.80632813 -12.55859375 19.19140625 C-11.89391144 16.5838064 -10.79468377 15.15998831 -9.125 13.0625 C-6.85104922 10.1372984 -4.86889996 7.2038285 -3 4 C-2.01755155 2.65368175 -1.02323436 1.31558703 0 0 Z " fill="#010101" transform="translate(413,826)"/>
<path d="M0 0 C1.58869543 4.34243417 2.34783689 8.4348582 3 13 C3.30808594 13.88300781 3.61617187 14.76601563 3.93359375 15.67578125 C5.20797475 19.64830225 5.90451533 23.57531256 6.5625 27.6875 C6.75755127 28.87363892 6.75755127 28.87363892 6.95654297 30.08374023 C7.81124163 35.41934634 8.44414655 40.73343539 8.7890625 46.12890625 C8.80449726 48.01231126 8.80449726 48.01231126 10 49 C10.125 51.5 10.125 51.5 10 54 C9.67 54.33 9.34 54.66 9 55 C8.77814156 57.26955186 8.57294485 59.54073755 8.375 61.8125 C7.27283811 71.69762547 2.84417745 80.64995159 -5 87 C-16.39453244 95.66878155 -27.84056123 97.81975698 -42 97 C-49.62207157 95.86650692 -55.02739705 93.82891302 -61 89 C-62.485 88.505 -62.485 88.505 -64 88 C-67 84.55555556 -67 84.55555556 -67 82 C-68.485 81.505 -68.485 81.505 -70 81 C-74.36490951 75.4756614 -76.77184347 69.43851641 -78.359375 62.640625 C-78.9497128 59.98258168 -78.9497128 59.98258168 -79.94921875 57.44140625 C-81.52437479 52.28262381 -82.2346519 47.01028002 -83.0625 41.6875 C-83.4038953 39.50333154 -83.74875347 37.31970053 -84.09765625 35.13671875 C-84.32207397 33.69365356 -84.32207397 33.69365356 -84.55102539 32.22143555 C-84.77960146 30.03606136 -84.77960146 30.03606136 -86 29 C-86.26082134 27.00616575 -86.45957503 25.00400533 -86.625 23 C-86.72039063 21.906875 -86.81578125 20.81375 -86.9140625 19.6875 C-86.94242188 18.800625 -86.97078125 17.91375 -87 17 C-86 16 -86 16 -84.15234375 15.90234375 C-82.1015625 15.93489583 -80.05078125 15.96744792 -78 16 C-78 15.34 -78 14.68 -78 14 C-76.83936035 13.80422363 -76.83936035 13.80422363 -75.65527344 13.60449219 C-60.86892481 11.10286106 -46.11336149 8.5317186 -31.42529297 5.49707031 C-28.77634827 4.95416198 -26.12491243 4.42492395 -23.47265625 3.8984375 C-22.55750244 3.71676025 -21.64234863 3.53508301 -20.69946289 3.34790039 C-18.94741176 3.00040576 -17.19529943 2.65321954 -15.44311523 2.30639648 C-14.65751221 2.14985596 -13.87190918 1.99331543 -13.0625 1.83203125 C-12.37285156 1.69514893 -11.68320312 1.5582666 -10.97265625 1.41723633 C-9.61338935 1.12973792 -8.26153215 0.80559799 -6.91796875 0.4519043 C-4.57550552 -0.10001773 -2.39771693 -0.06660325 0 0 Z M-23.95703125 26.88671875 C-30.44139945 28.82875079 -37.24838053 29.50759455 -43.92773438 30.5 C-49.13074504 31.29710995 -54.0776508 32.05836457 -59 34 C-59.94875 34.37125 -60.8975 34.7425 -61.875 35.125 C-62.57625 35.41375 -63.2775 35.7025 -64 36 C-63.96847464 43.15625695 -62.43405465 49.61443912 -60.25 56.375 C-60.01007324 57.14763184 -59.77014648 57.92026367 -59.52294922 58.71630859 C-57.27226712 65.38709234 -53.71920037 69.46438559 -47.4375 72.8125 C-41.66668881 75.59780857 -36.2867978 75.48609261 -30 75 C-30 74.34 -30 73.68 -30 73 C-28.700625 72.8453125 -28.700625 72.8453125 -27.375 72.6875 C-21.7499054 71.5416474 -17.63807612 69.50816361 -14.10546875 64.84375 C-9.30522958 56.83769739 -9.79608941 48.96244549 -11 40 C-11.24169922 38.17662109 -11.24169922 38.17662109 -11.48828125 36.31640625 C-11.8111218 30.76373225 -11.8111218 30.76373225 -14 26 C-17.57543053 25.78547417 -20.51381272 25.85420804 -23.95703125 26.88671875 Z " fill="#010101" transform="translate(942,413)"/>
<path d="M0 0 C0.721875 0.00257813 1.44375 0.00515625 2.1875 0.0078125 C2.909375 0.00523437 3.63125 0.00265625 4.375 0 C6.1875 0.1328125 6.1875 0.1328125 7.1875 1.1328125 C8.91109057 1.45580221 10.64179876 1.74116616 12.375 2.0078125 C16.87022787 2.78042979 20.28199516 3.81062043 24.1875 6.1328125 C24.1875 6.7928125 24.1875 7.4528125 24.1875 8.1328125 C25.074375 8.3596875 25.96125 8.5865625 26.875 8.8203125 C37.53568568 13.04435777 43.41567576 27.98829203 47.82421875 37.88671875 C49.61369548 42.14762178 51.27134116 46.44873031 52.87890625 50.78125 C53.82767859 53.21124005 54.81457393 55.5563214 55.90234375 57.921875 C56.18851562 58.5516626 56.4746875 59.1814502 56.76953125 59.83032227 C57.58335888 61.60453153 58.41428085 63.37087016 59.24609375 65.13671875 C60.1875 68.1328125 60.1875 68.1328125 59.5390625 70.43359375 C55.70050346 75.2595278 47.91530946 76.02881294 42.1875 77.1328125 C42.1875 77.7928125 42.1875 78.4528125 42.1875 79.1328125 C41.37925781 79.38675781 40.57101563 79.64070312 39.73828125 79.90234375 C38.66964844 80.24652344 37.60101563 80.59070313 36.5 80.9453125 C35.44425781 81.28175781 34.38851562 81.61820313 33.30078125 81.96484375 C30.32089256 83.08276937 27.87637583 84.44997865 25.1875 86.1328125 C21.50333137 87.56136768 19.18417005 88.1328125 15.1875 88.1328125 C15.1875 88.7928125 15.1875 89.4528125 15.1875 90.1328125 C14.28128906 90.44734375 13.37507813 90.761875 12.44140625 91.0859375 C4.20910017 93.96665431 4.20910017 93.96665431 -3.8125 97.3828125 C-7.12385036 98.9177936 -10.15123906 99.75729856 -13.8125 100.1328125 C-13.8125 100.7928125 -13.8125 101.4528125 -13.8125 102.1328125 C-18.2675 103.1228125 -18.2675 103.1228125 -22.8125 104.1328125 C-23.1425 102.1528125 -23.4725 100.1728125 -23.8125 98.1328125 C-24.4725 98.1328125 -25.1325 98.1328125 -25.8125 98.1328125 C-26.48470351 96.19722651 -27.15008077 94.25926878 -27.8125 92.3203125 C-28.18375 91.24136719 -28.555 90.16242188 -28.9375 89.05078125 C-29.8125 86.1328125 -29.8125 86.1328125 -29.8125 83.1328125 C-30.4725 83.1328125 -31.1325 83.1328125 -31.8125 83.1328125 C-32.48470351 81.19722651 -33.15008077 79.25926878 -33.8125 77.3203125 C-34.18375 76.24136719 -34.555 75.16242188 -34.9375 74.05078125 C-35.8125 71.1328125 -35.8125 71.1328125 -35.8125 68.1328125 C-36.4725 68.1328125 -37.1325 68.1328125 -37.8125 68.1328125 C-38.2964655 66.59264556 -38.77442387 65.05059056 -39.25 63.5078125 C-39.51683594 62.64929688 -39.78367188 61.79078125 -40.05859375 60.90625 C-43.69750335 47.51958776 -42.87459722 32.96130218 -36.0625 20.7578125 C-33.19038985 16.35109448 -30.11208713 13.13909753 -25.8125 10.1328125 C-25.08289063 9.60816406 -24.35328125 9.08351563 -23.6015625 8.54296875 C-17.77795273 4.68883218 -12.23950813 2.99215479 -5.40234375 1.67578125 C-2.99299654 1.17065416 -2.27933811 0.16702046 0 0 Z M-4.8125 24.1328125 C-4.8125 24.7928125 -4.8125 25.4528125 -4.8125 26.1328125 C-5.8953125 26.2875 -5.8953125 26.2875 -7 26.4453125 C-11.89623061 27.64216887 -15.16777448 29.81773401 -17.8125 34.1328125 C-17.8125 34.7928125 -17.8125 35.4528125 -17.8125 36.1328125 C-18.4725 36.1328125 -19.1325 36.1328125 -19.8125 36.1328125 C-23.75331727 46.67843951 -22.19983045 56.05381012 -17.8125 66.1328125 C-17.05882395 68.02718745 -16.30864967 69.92296048 -15.5625 71.8203125 C-14.98094844 73.25853425 -14.39831405 74.69632166 -13.8125 76.1328125 C-9.08698682 75.43651881 -4.98781148 73.67254486 -0.625 71.8203125 C0.90348937 71.1806156 2.43213436 70.54129041 3.9609375 69.90234375 C5.05873535 69.44142334 5.05873535 69.44142334 6.17871094 68.97119141 C8.60887144 67.95695087 11.05149253 66.97684721 13.5 66.0078125 C15.06268479 65.38327467 16.62517469 64.75824905 18.1875 64.1328125 C19.22003906 63.72160156 20.25257813 63.31039062 21.31640625 62.88671875 C22.38761719 62.45230469 23.45882812 62.01789062 24.5625 61.5703125 C26.02816406 60.98056641 26.02816406 60.98056641 27.5234375 60.37890625 C30.55019667 59.07385004 30.55019667 59.07385004 34.1875 56.1328125 C32.5375 51.1828125 30.8875 46.2328125 29.1875 41.1328125 C28.5275 41.1328125 27.8675 41.1328125 27.1875 41.1328125 C27.001875 40.3078125 26.81625 39.4828125 26.625 38.6328125 C24.73368131 34.02786265 22.01237438 30.34448057 18.1875 27.1328125 C15.55685248 26.35945735 15.55685248 26.35945735 13.1875 26.1328125 C13.1875 25.4728125 13.1875 24.8128125 13.1875 24.1328125 C10.34989474 22.71400987 7.91067025 23.0007653 4.75 23.0078125 C3.59628906 23.00523437 2.44257813 23.00265625 1.25390625 23 C-1.85375667 22.99385328 -1.85375667 22.99385328 -4.8125 24.1328125 Z " fill="#010101" transform="translate(206.8125,620.8671875)"/>
<path d="M0 0 C3.72918992 3.62264164 6.92404846 8.38726692 7.078125 13.6875 C7.03945313 14.8321875 7.03945313 14.8321875 7 16 C6.43152344 16.268125 5.86304688 16.53625 5.27734375 16.8125 C-0.20775723 19.59625742 -3.80006359 22.57880473 -7.58984375 27.42578125 C-8.28787109 28.20501953 -8.28787109 28.20501953 -9 29 C-9.66 29 -10.32 29 -11 29 C-13.75910832 36.09484996 -15.499715 41.95076951 -12.75 49.375 C-10.91623039 52.12565442 -9.92005847 52.70889977 -7 54 C-7.05800781 53.39414062 -7.11601563 52.78828125 -7.17578125 52.1640625 C-7.68275958 42.74875057 -4.2182465 36.4015835 1.6875 29.25 C7.86570844 22.65055008 14.69346449 18.55114422 23.7265625 17.76171875 C32.54349549 17.53594823 41.17194744 18.97803698 48 25 C48 25.66 48 26.32 48 27 C48.61875 27.2475 49.2375 27.495 49.875 27.75 C52.35068687 29.20628639 52.95125002 30.37812506 54 33 C54.66 33 55.32 33 56 33 C61.46586287 45.1739673 61.70982266 53.32428059 58.16796875 66.12109375 C57.78253906 67.07113281 57.39710938 68.02117187 57 69 C55.515 69.495 55.515 69.495 54 70 C53.62875 71.3303125 53.62875 71.3303125 53.25 72.6875 C51.12180801 78.32720877 46.72996012 81.05638539 41.5625 83.875 C40.716875 84.24625 39.87125 84.6175 39 85 C39.66 85.66 40.32 86.32 41 87 C41.31821427 94.47803531 36.45137109 99.392692 32 105 C29.5625 104.625 29.5625 104.625 27 104 C26.67 103.34 26.34 102.68 26 102 C24.11976281 101.05988141 22.23750976 100.12351014 20.34375 99.2109375 C16.37100202 97.15835104 12.47839997 94.81814812 9 92 C9 91.34 9 90.68 9 90 C8.34 89.95875 7.68 89.9175 7 89.875 C3.33281592 88.80540464 1.15424308 86.96279653 -1.81640625 84.62109375 C-5.32307401 82.01775364 -9.15226495 80.04822398 -13 78 C-16.0625 76.3125 -16.0625 76.3125 -18 75 C-18 74.34 -18 73.68 -18 73 C-18.7425 72.773125 -19.485 72.54625 -20.25 72.3125 C-23.54618078 70.73932281 -24.81688828 68.8873413 -27 66 C-27.70125 65.484375 -28.4025 64.96875 -29.125 64.4375 C-31.29145375 62.77655213 -32.07179502 61.55256368 -33 59 C-33 57.68 -33 56.36 -33 55 C-33.66 55 -34.32 55 -35 55 C-35.1968121 52.95920995 -35.38202831 50.91729993 -35.5625 48.875 C-35.66691406 47.73804688 -35.77132812 46.60109375 -35.87890625 45.4296875 C-35.99608016 42.11102007 -35.6655072 39.2437314 -35 36 C-34.34 36 -33.68 36 -33 36 C-32.896875 34.96875 -32.79375 33.9375 -32.6875 32.875 C-32.00872203 29.04916055 -30.88841205 26.36629975 -29 23 C-28.34 23 -27.68 23 -27 23 C-26.80277344 22.15179687 -26.60554687 21.30359375 -26.40234375 20.4296875 C-24.59046396 15.99840489 -21.96487095 13.41209937 -18.5625 10.125 C-17.97662109 9.53203125 -17.39074219 8.9390625 -16.78710938 8.328125 C-12.39416223 4 -12.39416223 4 -9 4 C-9 3.34 -9 2.68 -9 2 C-5.50434664 -0.33043558 -4.1134271 -0.58763244 0 0 Z M11.5625 47.0625 C8.8912335 52.08448102 8.30083121 56.39707202 9 62 C11.07527036 66.00230712 13.22956356 68.57712026 17 71 C21.64699018 72.2115915 25.75667063 72.42226281 30.3125 70.875 C34.52436074 67.93649251 37.34466848 65.5489654 39.375 60.75 C40.32882442 55.02705346 40.26911424 50.24535597 37.375 45.125 C33.66560125 41.80606427 29.96797042 40.29310198 25.0625 39.5625 C19.2775322 40.38892397 15.21066958 42.47890232 11.5625 47.0625 Z " fill="#010101" transform="translate(826,666)"/>
<path d="M0 0 C0.66 0.33 1.32 0.66 2 1 C2 1.66 2 2.32 2 3 C2.61875 3.2475 3.2375 3.495 3.875 3.75 C6.35068687 5.20628639 6.95125002 6.37812506 8 9 C8.66 9 9.32 9 10 9 C12.39542583 13.58154261 14.50829734 18.0276578 16 23 C16.87914062 22.88269531 17.75828125 22.76539063 18.6640625 22.64453125 C22.48412324 23.0515869 23.66236458 24.11427293 26.08203125 27.02148438 C26.50871094 27.57126953 26.93539062 28.12105469 27.375 28.6875 C27.82488281 29.21794922 28.27476562 29.74839844 28.73828125 30.29492188 C30.74108613 32.77559965 31.94179824 34.60154177 32.40625 37.78125 C32 40 32 40 30.125 41.8125 C28 43 28 43 26 43 C25.62875 43.928125 25.62875 43.928125 25.25 44.875 C23.77229238 47.38710296 22.56044823 47.76107344 20 49 C19.67 49.99 19.34 50.98 19 52 C17.8553125 52.680625 17.8553125 52.680625 16.6875 53.375 C13.64081262 55.21718307 12.18942491 57.2134592 10 60 C8.58594968 61.22122528 7.16911628 62.44024208 5.71484375 63.61328125 C3.71672344 65.2290733 1.76027447 66.88634178 -0.1875 68.5625 C-1.16783203 69.39974609 -1.16783203 69.39974609 -2.16796875 70.25390625 C-4.0356206 72.0339497 -5.4585261 73.93887909 -7 76 C-8.33333333 76.66666667 -9.66666667 77.33333333 -11 78 C-12.70993434 79.6222454 -14.37347684 81.29413425 -16 83 C-20.05807043 87.1740153 -24.34995887 91.0441883 -28.6953125 94.9140625 C-30.94635133 96.89203985 -30.94635133 96.89203985 -32.65234375 98.7734375 C-34 100 -34 100 -36.4375 100 C-39.80005517 98.68778335 -40.89021092 96.90095998 -43 94 C-44.64740076 92.3142876 -46.31066078 90.6436814 -48 89 C-49 88 -49 88 -49.5625 85.375 C-48.68377805 80.10266831 -45.04986965 78.18498223 -41 75 C-39.53584667 73.69399564 -38.077234 72.38174553 -36.625 71.0625 C-33.24615385 68 -33.24615385 68 -31 68 C-30.505 66.515 -30.505 66.515 -30 65 C-32.31 64.01 -34.62 63.02 -37 62 C-37 61.34 -37 60.68 -37 60 C-37.53625 59.938125 -38.0725 59.87625 -38.625 59.8125 C-43.21049747 58.24377718 -46.36046231 54.95930654 -49 51 C-49 50.01 -49 49.02 -49 48 C-49.99 47.67 -50.98 47.34 -52 47 C-54.44230473 41.86952094 -54.36673169 36.68957011 -54.375 31.125 C-54.39949219 30.26519531 -54.42398438 29.40539062 -54.44921875 28.51953125 C-54.47712928 22.38851842 -53.22431597 18.19667742 -50 13 C-49.33484375 11.90751953 -49.33484375 11.90751953 -48.65625 10.79296875 C-46.40647042 7.6691194 -44.3844374 4.98398054 -41 3 C-40.34 3 -39.68 3 -39 3 C-39 2.34 -39 1.68 -39 1 C-27.17003799 -7.77706859 -12.35827832 -6.98013868 0 0 Z M-26.6875 20.375 C-27.450625 21.24125 -28.21375 22.1075 -29 23 C-29.7425 23.70125 -30.485 24.4025 -31.25 25.125 C-34.3617439 28.45901132 -34.45690773 32.21114659 -34.4140625 36.57421875 C-33.66920428 40.93796363 -31.21358465 44.04982393 -28 47 C-25.29781554 48.11635105 -25.29781554 48.11635105 -23 48 C-23 48.66 -23 49.32 -23 50 C-19.7 50 -16.4 50 -13 50 C-13 49.34 -13 48.68 -13 48 C-12.071875 47.7525 -11.14375 47.505 -10.1875 47.25 C-6.82214391 45.93025251 -5.74084779 45.09484051 -4 42 C-4 41.34 -4 40.68 -4 40 C-3.34 40 -2.68 40 -2 40 C0.25471344 34.8274221 0.59701619 30.37942296 -1 25 C-3.35193907 20.95497125 -5.87427782 18.5178322 -10.125 16.5625 C-16.39876859 15.33502354 -21.83613077 16.08774347 -26.6875 20.375 Z " fill="#010101" transform="translate(302,737)"/>
<path d="M0 0 C8.7329588 6.86460944 14.47560871 16.43043656 16.1875 27.375 C16.74361068 35.06560381 14.9343167 43.57551318 10.3125 49.875 C8.8275 50.37 8.8275 50.37 7.3125 50.875 C6.8484375 52.1125 6.8484375 52.1125 6.375 53.375 C6.024375 54.2 5.67375 55.025 5.3125 55.875 C3.25 56.5 3.25 56.5 1.3125 56.875 C0.9825 57.865 0.6525 58.855 0.3125 59.875 C-2.62890625 61.26171875 -2.62890625 61.26171875 -6.25 62.5625 C-7.44753906 62.99949219 -8.64507812 63.43648438 -9.87890625 63.88671875 C-10.80574219 64.21285156 -11.73257813 64.53898437 -12.6875 64.875 C-12.19378906 65.33390625 -11.70007813 65.7928125 -11.19140625 66.265625 C-10.55074219 66.87921875 -9.91007812 67.4928125 -9.25 68.125 C-8.61191406 68.72828125 -7.97382813 69.3315625 -7.31640625 69.953125 C-5.58126891 72.0003374 -5.24700224 73.30787209 -4.6875 75.875 C-3.36282254 76.5587045 -2.02886367 77.22464186 -0.6875 77.875 C-0.00481862 79.20020503 0.6632041 80.53312182 1.3125 81.875 C2.7975 82.37 2.7975 82.37 4.3125 82.875 C4.625 85.125 4.625 85.125 4.3125 87.875 C2.125 89.875 2.125 89.875 -0.6875 91.875 C-1.533125 92.720625 -2.37875 93.56625 -3.25 94.4375 C-5.3137718 96.5012718 -7.25098298 98.27866126 -9.6875 99.875 C-11.6875 99.875 -11.6875 99.875 -13.96875 97.77734375 C-16.81311693 94.74090032 -19.52155948 91.62990777 -22.1875 88.4375 C-22.87779297 87.61668945 -22.87779297 87.61668945 -23.58203125 86.77929688 C-24.49859474 85.68845722 -25.41270573 84.59555166 -26.32421875 83.50048828 C-27.25434942 82.3914607 -28.19497193 81.29116919 -29.14453125 80.19873047 C-32.6875 76.0881382 -32.6875 76.0881382 -32.6875 73.875 C-33.615625 73.50375 -33.615625 73.50375 -34.5625 73.125 C-37.09108627 71.63759631 -37.40589004 70.43821991 -38.6875 67.875 C-39.368125 67.545 -40.04875 67.215 -40.75 66.875 C-41.389375 66.545 -42.02875 66.215 -42.6875 65.875 C-43.02083333 64.54166667 -43.35416667 63.20833333 -43.6875 61.875 C-45.00153276 61.17105388 -46.3395257 60.51154342 -47.6875 59.875 C-50.30742102 57.45157306 -52.59879854 54.98718125 -54.8125 52.1875 C-56.65311073 49.68346331 -56.65311073 49.68346331 -59.6875 47.875 C-59.97625 47.276875 -60.265 46.67875 -60.5625 46.0625 C-62.62139476 42.05909351 -66.20185174 39.29730283 -69.5625 36.375 C-71.6875 33.875 -71.6875 33.875 -71.61328125 31.55078125 C-70.4038138 28.05506309 -68.597344 26.18313857 -66 23.5625 C-65.15050781 22.67949219 -64.30101562 21.79648437 -63.42578125 20.88671875 C-60.21292657 18.52634762 -58.58310246 18.44722521 -54.6875 18.875 C-53.6975 16.565 -52.7075 14.255 -51.6875 11.875 C-51.0275 11.875 -50.3675 11.875 -49.6875 11.875 C-49.60242188 11.30265625 -49.51734375 10.7303125 -49.4296875 10.140625 C-48.47273214 7.21939283 -46.98961716 5.77819279 -44.8125 3.625 C-44.11382812 2.91859375 -43.41515625 2.2121875 -42.6953125 1.484375 C-40.6875 -0.125 -40.6875 -0.125 -37.6875 -0.125 C-37.6875 -0.785 -37.6875 -1.445 -37.6875 -2.125 C-24.81331745 -7.9310039 -12.17978388 -7.76081467 0 0 Z M-36.6875 21.875 C-37.43931086 24.51292816 -37.43931086 24.51292816 -37.6875 26.875 C-38.3475 26.875 -39.0075 26.875 -39.6875 26.875 C-39.6875 29.515 -39.6875 32.155 -39.6875 34.875 C-39.0275 34.875 -38.3675 34.875 -37.6875 34.875 C-37.419375 35.803125 -37.15125 36.73125 -36.875 37.6875 C-35.77772755 40.63281025 -35.15392831 42.02517877 -32.6875 43.875 C-32.0275 43.875 -31.3675 43.875 -30.6875 43.875 C-30.3575 44.865 -30.0275 45.855 -29.6875 46.875 C-24.72989717 49.35380141 -19.96849441 49.12232058 -14.6875 47.875 C-13.6975 47.215 -12.7075 46.555 -11.6875 45.875 C-11.6875 45.215 -11.6875 44.555 -11.6875 43.875 C-11.06875 43.66875 -10.45 43.4625 -9.8125 43.25 C-7.47694399 41.98978173 -7.47694399 41.98978173 -6.375 39.3125 C-5.23372069 33.60610347 -5.68058093 28.92911491 -8.25 23.6875 C-12.65502237 18.60478188 -16.70517232 14.58886009 -23.6875 14.0625 C-29.40327498 14.41587094 -33.32572092 17.33703712 -36.6875 21.875 Z " fill="#010101" transform="translate(332.6875,236.125)"/>
<path d="M0 0 C3.33333333 0.66666667 6.66666667 1.33333333 10 2 C11.40185547 2.28037109 11.40185547 2.28037109 12.83203125 2.56640625 C13.54746094 2.70949219 14.26289062 2.85257812 15 3 C15 3.66 15 4.32 15 5 C17.475 5.495 17.475 5.495 20 6 C19.91038941 7.48011981 19.80226028 8.95911751 19.6875 10.4375 C19.60048828 11.67306641 19.60048828 11.67306641 19.51171875 12.93359375 C19.07862327 15.52886055 18.48014672 17.65242083 17.6171875 20.1171875 C15.73455722 25.54339284 14.59185218 31.06868167 13.4375 36.6875 C12.21653512 42.58820022 10.95666073 48.29307287 9 54 C7.88738863 60.17257439 7.97213341 65.83280048 9 72 C10.485 72.495 10.485 72.495 12 73 C12.433125 73.474375 12.86625 73.94875 13.3125 74.4375 C17.54947044 78.36062078 23.11506948 78.39480282 28.6015625 78.23828125 C32.11813987 77.88891444 34.17721711 77.15069172 37 75 C40.74583058 69.66890324 42.29702383 63.20369889 44 57 C44.31710937 55.92105469 44.63421875 54.84210938 44.9609375 53.73046875 C46.30580126 48.90210451 47.40568963 44.03082445 48.5 39.140625 C49.39247984 35.24997071 50.49422515 31.70420614 52 28 C52.57805624 25.73815611 53.11856671 23.46644979 53.625 21.1875 C53.88539063 20.02605469 54.14578125 18.86460937 54.4140625 17.66796875 C54.60742188 16.78753906 54.80078125 15.90710938 55 15 C59.55879046 14.91184659 62.69496856 15.50979681 67 17 C70.32020685 17.73782374 73.65618336 18.37881667 77 19 C77.14285714 26.42857143 77.14285714 26.42857143 76 30 C75.34 30 74.68 30 74 30 C73.94392578 30.99966797 73.94392578 30.99966797 73.88671875 32.01953125 C73.38888174 38.99901096 72.01861273 45.31636358 70 52 C68.75088177 56.22626562 67.66402941 60.44684801 66.70605469 64.74804688 C64.9204467 72.58636886 62.3502674 79.15557928 58 86 C57.34 86 56.68 86 56 86 C55.73574219 86.59683594 55.47148438 87.19367188 55.19921875 87.80859375 C52.01896815 93.62006146 46.08664267 96.89734162 40 99 C32.67284433 100.83178892 24.35341316 100.58992717 17 99 C17 98.34 17 97.68 17 97 C16.41992188 96.96261719 15.83984375 96.92523438 15.2421875 96.88671875 C4.85186936 96.01228604 -3.00736737 90.57299283 -10 83 C-16.51273452 73.81361657 -16.30823657 62.74741181 -15 52 C-13.68863302 44.80799004 -11.75292955 37.78111943 -9.76513672 30.75146484 C-8.68765433 26.87679143 -7.75235155 22.97226359 -6.8125 19.0625 C-3.26321815 4.89482723 -3.26321815 4.89482723 0 0 Z " fill="#010101" transform="translate(612,125)"/>
<path d="M0 0 C1.67542976 0.28604898 3.34385343 0.61781233 5 1 C5 1.66 5 2.32 5 3 C5.85851562 3.39445313 5.85851562 3.39445313 6.734375 3.796875 C10.68282709 5.89363922 14.06599973 8.62589968 17 12 C17.5 15.4375 17.5 15.4375 17 18 C16.01 18.33 15.02 18.66 14 19 C13.690625 19.639375 13.38125 20.27875 13.0625 20.9375 C11.74215782 23.50051718 10.5185326 23.7407337 8 25 C7.67 25.66 7.34 26.32 7 27 C5.73577236 29.52845528 4.47154472 29.76422764 2 31 C1.67 31.66 1.34 32.32 1 33 C-0.26422764 35.52845528 -1.52845528 35.76422764 -4 37 C-4.68486725 38.32407669 -5.34870203 39.65909241 -6 41 C-10.18793503 45.6287703 -10.18793503 45.6287703 -13.1875 47 C-15.78755524 48.43451323 -15.98106269 50.26160597 -17 53 C-17.66 53.804375 -18.32 54.60875 -19 55.4375 C-22.20318124 59.54157597 -23.23969269 63.21869275 -23.0625 68.375 C-22.27435154 73.92018738 -19.22612313 77.48682041 -15 81 C-11.77719619 82.55432022 -11.77719619 82.55432022 -9 83 C-9 83.66 -9 84.32 -9 85 C-6.69 85 -4.38 85 -2 85 C-2 84.34 -2 83.68 -2 83 C-1.22076172 82.65388672 -1.22076172 82.65388672 -0.42578125 82.30078125 C4.25032812 80.11398703 7.49694868 77.88175957 11 74 C11.845625 73.175 12.69125 72.35 13.5625 71.5 C16.00298993 69.09427953 16.00298993 69.09427953 17.875 66.5625 C19.67892886 64.38717402 21.33342488 62.83263797 23.5 61.0625 C26.72043133 58.39022719 28.7415722 55.53820355 31 52 C32.62449243 50.29220027 34.29220027 48.62449243 36 47 C36.9075 46.0925 37.815 45.185 38.75 44.25 C42 41 42 41 44.25 40.625 C48.17283755 41.15993239 49.40688241 43.08274271 52 46 C53.3303125 47.3303125 53.3303125 47.3303125 54.6875 48.6875 C59 53 59 53 59.125 55.625 C59.08375 56.40875 59.0425 57.1925 59 58 C58.38125 58.2475 57.7625 58.495 57.125 58.75 C54.86253506 59.82143729 54.86253506 59.82143729 54 62 C52.73577236 64.52845528 51.47154472 64.76422764 49 66 C48.67 66.66 48.34 67.32 48 68 C47 70 47 70 45 70.9375 C42.2551735 72.39568908 42.08634731 74.17549698 41 77 C39.515 77.495 39.515 77.495 38 78 C37.5359375 78.9590625 37.5359375 78.9590625 37.0625 79.9375 C35.74215782 82.50051718 34.5185326 82.7407337 32 84 C31.67 84.66 31.34 85.32 31 86 C29.73577236 88.52845528 28.47154472 88.76422764 26 90 C25.33222522 91.3327787 24.66568393 92.66617575 24 94 C18.24213895 100.56362586 9.54130868 104.66455109 1 106 C-9.70540819 106.53527041 -17.12337875 103.9704989 -26 98 C-26.70253906 97.55785156 -27.40507813 97.11570312 -28.12890625 96.66015625 C-37.21693777 90.52440112 -43.67335723 80.69077627 -46 70 C-46.60632292 63.73466318 -46.64958596 57.80385496 -44 52 C-43.65839844 51.24203125 -43.31679688 50.4840625 -42.96484375 49.703125 C-39.17475849 41.65985725 -34.4535395 35.12258875 -28 29 C-27.175 28.175 -26.35 27.35 -25.5 26.5 C-24.675 25.675 -23.85 24.85 -23 24 C-22.175 23.154375 -21.35 22.30875 -20.5 21.4375 C-18 19 -18 19 -15.375 16.9375 C-12.94328702 15.11236392 -12.94328702 15.11236392 -11.3125 12.75 C-10.879375 12.1725 -10.44625 11.595 -10 11 C-9.34 11 -8.68 11 -8 11 C-7.773125 10.278125 -7.54625 9.55625 -7.3125 8.8125 C-5.74730392 5.45850839 -3.70307284 3.49514416 -1 1 C-0.67 0.67 -0.34 0.34 0 0 Z " fill="#010101" transform="translate(801,209)"/>
<path d="M0 0 C1.8125 0.125 1.8125 0.125 4 1 C5.06775224 2.96466413 6.06553465 4.96855359 7 7 C7.99862354 8.00137457 8.99876467 9.00123686 10 10 C11.421875 12.0859375 11.421875 12.0859375 12.75 14.375 C13.19859375 15.12523437 13.6471875 15.87546875 14.109375 16.6484375 C15.6730828 20.77717476 14.25273894 23.43150322 12.51171875 27.34765625 C11.90712814 28.58764146 11.2988974 29.82585683 10.6875 31.0625 C7.55806262 37.55184653 5.07172427 44.08996316 3 51 C4.22074219 50.97679687 5.44148437 50.95359375 6.69921875 50.9296875 C16.37237608 50.80369135 25.48284948 51.08631803 35 53 C35.33 53.99 35.66 54.98 36 56 C36.66 56 37.32 56 38 56 C42 62.625 42 62.625 42 66 C43.485 66.495 43.485 66.495 45 67 C45.33 68.98 45.66 70.96 46 73 C41.10743762 74.36319247 36.46190434 73.87788575 31.46484375 73.51171875 C30.5491713 73.44845901 29.63349884 73.38519928 28.69007874 73.32002258 C26.75920999 73.18458637 24.82858112 73.04569173 22.89819336 72.90356445 C19.94517461 72.68806008 16.99135612 72.48888305 14.03710938 72.29101562 C12.15878366 72.15723636 10.28052559 72.02250301 8.40234375 71.88671875 C7.51997543 71.82828293 6.63760712 71.76984711 5.72850037 71.7096405 C4.49185387 71.61493217 4.49185387 71.61493217 3.23022461 71.51831055 C2.14698158 71.44050606 2.14698158 71.44050606 1.04185486 71.36112976 C-1.25511187 70.95488 -2.97131165 70.13099665 -5 69 C-5.20496094 69.69867188 -5.40992188 70.39734375 -5.62109375 71.1171875 C-5.89050781 72.02726562 -6.15992188 72.93734375 -6.4375 73.875 C-6.70433594 74.77992188 -6.97117187 75.68484375 -7.24609375 76.6171875 C-8 79 -8 79 -9 81 C-9.66 81 -10.32 81 -11 81 C-11.09796875 81.556875 -11.1959375 82.11375 -11.296875 82.6875 C-12.24725504 87.53771536 -13.60280871 91.50431144 -15.93359375 95.84765625 C-17.14104039 98.28466393 -18.03833781 100.74606541 -18.9375 103.3125 C-20.95123053 109.04080119 -23.40993792 114.51204059 -26 120 C-27.32 120 -28.64 120 -30 120 C-33 114.375 -33 114.375 -33 111 C-33.66 111 -34.32 111 -35 111 C-35.82113177 109.60922699 -36.63152495 108.21211107 -37.4375 106.8125 C-37.88996094 106.03519531 -38.34242188 105.25789063 -38.80859375 104.45703125 C-40.02391499 101.95068023 -40.57626575 99.74209635 -41 97 C-40.34 97 -39.68 97 -39 97 C-38.896875 96.154375 -38.79375 95.30875 -38.6875 94.4375 C-37.9171146 90.58557299 -36.63725486 87.55924969 -35 84 C-34.34 84 -33.68 84 -33 84 C-32.9175 83.195625 -32.835 82.39125 -32.75 81.5625 C-31.65167078 76.34543623 -29.37461825 71.7492365 -27 67 C-27.94617188 67.01160156 -28.89234375 67.02320313 -29.8671875 67.03515625 C-33.44502295 67.06718701 -37.02132724 67.054629 -40.59912109 67.02099609 C-42.21398555 67.00687383 -43.82892174 66.99950314 -45.44384766 66.99853516 C-47.8600105 66.98842569 -50.27215461 66.93649148 -52.6875 66.875 C-53.81744385 66.87898804 -53.81744385 66.87898804 -54.97021484 66.88305664 C-57.87318138 66.77804737 -60.2692386 66.58916721 -62.58129883 64.72509766 C-65.41530622 61.44673015 -66.90972643 58.16286273 -68 54 C-68.66 54 -69.32 54 -70 54 C-72.1875 51.3125 -72.1875 51.3125 -74 48 C-73.61328125 45.29296875 -73.61328125 45.29296875 -73 43 C-62.08505583 43.45881402 -51.19961798 44.08652606 -40.3125 45 C-39.3225 45.0829834 -38.3325 45.1659668 -37.3125 45.25146484 C-31.53035412 45.74928491 -25.76530043 46.33500139 -20 47 C-19.4121875 45.39125 -19.4121875 45.39125 -18.8125 43.75 C-17.03313309 38.99083203 -15.06328071 34.31643102 -13.0859375 29.63671875 C-12.32299233 27.78424396 -11.63354149 25.90062446 -11 24 C-10.34 24 -9.68 24 -9 24 C-8.90203125 23.443125 -8.8040625 22.88625 -8.703125 22.3125 C-7.74328258 17.41399386 -6.37610379 13.32509246 -4.01953125 8.9296875 C-2.48742717 6.02984299 -1.26088995 3.02613589 0 0 Z " fill="#020202" transform="translate(873,282)"/>
<path d="M0 0 C2.2597591 1.78812154 3.01422586 3.10952942 4.15234375 5.703125 C4.79171875 5.991875 5.43109375 6.280625 6.08984375 6.578125 C9.15064167 8.24765114 9.76389621 10.56402622 11.15234375 13.703125 C11.68859375 14.734375 12.22484375 15.765625 12.77734375 16.828125 C16.45845895 24.52500224 16.46615729 34.48065236 13.96484375 42.578125 C10.32142023 51.73775984 5.02391834 58.14745156 -3.84765625 62.703125 C-4.83765625 62.703125 -5.82765625 62.703125 -6.84765625 62.703125 C-6.84765625 63.363125 -6.84765625 64.023125 -6.84765625 64.703125 C-16.35710367 68.23760988 -26.09285895 69.48233227 -35.7578125 65.7421875 C-42.16194932 62.55807461 -47.8936417 57.69571452 -51.84765625 51.703125 C-52.5078125 49.4921875 -52.5078125 49.4921875 -52.84765625 47.703125 C-53.50765625 47.703125 -54.16765625 47.703125 -54.84765625 47.703125 C-55.171875 45.4375 -55.171875 45.4375 -54.84765625 42.703125 C-52.6171875 40.71875 -52.6171875 40.71875 -49.66015625 38.953125 C-48.69722656 38.36015625 -47.73429688 37.7671875 -46.7421875 37.15625 C-44.03251826 35.79593022 -41.83238577 35.11782234 -38.84765625 34.703125 C-38.51765625 33.713125 -38.18765625 32.723125 -37.84765625 31.703125 C-34.63481287 29.81732563 -32.60132042 28.703125 -28.84765625 28.703125 C-28.84765625 28.043125 -28.84765625 27.383125 -28.84765625 26.703125 C-27.70876953 26.10564453 -27.70876953 26.10564453 -26.546875 25.49609375 C-25.55300781 24.96628906 -24.55914063 24.43648437 -23.53515625 23.890625 C-22.54902344 23.36855469 -21.56289063 22.84648438 -20.546875 22.30859375 C-18.21922154 20.92412838 -16.53270143 19.80224271 -14.84765625 17.703125 C-14.84765625 17.043125 -14.84765625 16.383125 -14.84765625 15.703125 C-20.45765625 15.703125 -26.06765625 15.703125 -31.84765625 15.703125 C-32.17765625 16.693125 -32.50765625 17.683125 -32.84765625 18.703125 C-33.63140625 19.156875 -34.41515625 19.610625 -35.22265625 20.078125 C-38.21355939 21.92963647 -39.14014399 23.69465102 -40.84765625 26.703125 C-41.50765625 26.703125 -42.16765625 26.703125 -42.84765625 26.703125 C-43.17765625 28.353125 -43.50765625 30.003125 -43.84765625 31.703125 C-45.26468138 31.56081692 -46.68126585 31.41411754 -48.09765625 31.265625 C-48.8865625 31.18441406 -49.67546875 31.10320313 -50.48828125 31.01953125 C-52.67130264 30.72677507 -54.72497445 30.28248081 -56.84765625 29.703125 C-56.84765625 29.043125 -56.84765625 28.383125 -56.84765625 27.703125 C-58.16765625 27.373125 -59.48765625 27.043125 -60.84765625 26.703125 C-60.39744682 20.85040244 -57.80926398 16.62092381 -54.84765625 11.703125 C-54.18765625 11.703125 -53.52765625 11.703125 -52.84765625 11.703125 C-52.41453125 10.775 -52.41453125 10.775 -51.97265625 9.828125 C-50.84765625 7.703125 -50.84765625 7.703125 -48.84765625 5.703125 C-47.85765625 5.703125 -46.86765625 5.703125 -45.84765625 5.703125 C-45.51765625 4.713125 -45.18765625 3.723125 -44.84765625 2.703125 C-42.265625 1.1328125 -42.265625 1.1328125 -39.03515625 -0.421875 C-37.44767578 -1.19917969 -37.44767578 -1.19917969 -35.828125 -1.9921875 C-24.59393524 -6.90990622 -10.55678102 -5.86323322 0 0 Z M-12.16015625 33.515625 C-15.62207805 35.90932861 -19.08176018 37.82017697 -22.84765625 39.703125 C-25.2357202 41.30487521 -27.53506874 42.99181024 -29.84765625 44.703125 C-27.75511054 47.19808335 -26.25982074 48.55934669 -23.16015625 49.640625 C-18.64775663 49.72576462 -15.00988178 48.34026704 -10.84765625 46.703125 C-10.84765625 46.043125 -10.84765625 45.383125 -10.84765625 44.703125 C-9.85765625 44.373125 -8.86765625 44.043125 -7.84765625 43.703125 C-7.84765625 43.043125 -7.84765625 42.383125 -7.84765625 41.703125 C-7.18765625 41.703125 -6.52765625 41.703125 -5.84765625 41.703125 C-4.93072664 38.95233616 -4.73879542 37.34363587 -4.78515625 34.515625 C-4.80578125 33.2575 -4.82640625 31.999375 -4.84765625 30.703125 C-8.4055887 30.703125 -9.31094295 31.49312644 -12.16015625 33.515625 Z " fill="#030303" transform="translate(751.84765625,805.296875)"/>
<path d="M0 0 C0.928125 0.680625 0.928125 0.680625 1.875 1.375 C1.875 2.035 1.875 2.695 1.875 3.375 C2.45765625 3.60574219 3.0403125 3.83648437 3.640625 4.07421875 C6.44479959 5.70671899 7.76605724 7.53810935 9.625 10.1875 C10.23859375 11.03957031 10.8521875 11.89164063 11.484375 12.76953125 C12.99290627 15.59590866 13.16916697 17.22401918 12.875 20.375 C6.25 24.375 6.25 24.375 2.875 24.375 C2.875 25.035 2.875 25.695 2.875 26.375 C1.60808493 27.04908308 0.33629251 27.71400497 -0.9375 28.375 C-1.64519531 28.74625 -2.35289062 29.1175 -3.08203125 29.5 C-5.125 30.375 -5.125 30.375 -8.125 30.375 C-8.455 31.365 -8.785 32.355 -9.125 33.375 C-10.9457338 34.35280149 -12.77608177 35.31650548 -14.6484375 36.19140625 C-17.53302112 37.57000063 -20.32275221 39.08629805 -23.125 40.625 C-24.07375 41.14578125 -25.0225 41.6665625 -26 42.203125 C-26.70125 42.58984375 -27.4025 42.9765625 -28.125 43.375 C-25.47302024 46.02697976 -23.64234188 46.33442417 -19.9375 46.625 C-14.17700204 46.24726243 -9.93267148 44.84636051 -5.4375 41.1875 C-2.63291345 37.77651636 -0.34642125 34.18450112 1.875 30.375 C5.11329236 31.17495821 8.33977729 32.01445989 11.5625 32.875 C12.53574219 33.1328125 13.50898438 33.390625 14.51171875 33.65625 C16.875 34.375 16.875 34.375 17.875 35.375 C17.91592937 37.70797433 17.91741723 40.04205225 17.875 42.375 C17.215 42.375 16.555 42.375 15.875 42.375 C15.83375 43.055625 15.7925 43.73625 15.75 44.4375 C14.52201039 48.56003653 12.02576207 51.47496171 8.875 54.375 C8.215 54.375 7.555 54.375 6.875 54.375 C6.875 55.035 6.875 55.695 6.875 56.375 C1.58088235 60.375 1.58088235 60.375 -2.125 60.375 C-2.125 61.035 -2.125 61.695 -2.125 62.375 C-4.78791751 63.22229194 -7.45429998 64.05290432 -10.125 64.875 C-11.24068359 65.23271484 -11.24068359 65.23271484 -12.37890625 65.59765625 C-19.87803177 67.8799988 -25.9710475 68.15682603 -33.5 65.4375 C-34.51835937 65.07785156 -35.53671875 64.71820313 -36.5859375 64.34765625 C-39.125 63.375 -39.125 63.375 -41.125 62.375 C-41.125 61.715 -41.125 61.055 -41.125 60.375 C-42.3315625 60.00375 -42.3315625 60.00375 -43.5625 59.625 C-44.408125 59.2125 -45.25375 58.8 -46.125 58.375 C-46.4971042 57.05196283 -46.83130173 55.71762065 -47.125 54.375 C-48.0840625 53.941875 -48.0840625 53.941875 -49.0625 53.5 C-51.125 52.375 -51.125 52.375 -52.375 49.25 C-52.6225 48.30125 -52.87 47.3525 -53.125 46.375 C-53.785 46.375 -54.445 46.375 -55.125 46.375 C-57.19592029 41.2470069 -57.42881069 36.80987949 -57.375 31.375 C-57.38273437 30.59382813 -57.39046875 29.81265625 -57.3984375 29.0078125 C-57.38294398 24.40623632 -56.87328303 20.7040818 -55.125 16.375 C-54.465 16.375 -53.805 16.375 -53.125 16.375 C-52.8775 15.42625 -52.63 14.4775 -52.375 13.5 C-50.95178531 9.94196327 -50.43393663 9.82265978 -47.125 8.375 C-46.82335937 7.75882813 -46.52171875 7.14265625 -46.2109375 6.5078125 C-43.34792048 0.88476467 -37.04307037 -1.90236766 -31.375 -4 C-19.52226502 -7.55283492 -10.70411553 -5.56614008 0 0 Z M-35.80078125 20.38671875 C-37.56996765 23.04310777 -37.92299067 25.21018722 -38.125 28.375 C-37.465 29.365 -36.805 30.355 -36.125 31.375 C-30.31076309 28.52250381 -24.57823204 25.57360951 -18.9375 22.390625 C-17.68344876 21.68792388 -16.41074753 21.01787376 -15.125 20.375 C-15.125 19.715 -15.125 19.055 -15.125 18.375 C-13.805 18.045 -12.485 17.715 -11.125 17.375 C-12.445 16.715 -13.765 16.055 -15.125 15.375 C-15.125 14.715 -15.125 14.055 -15.125 13.375 C-23.35745811 9.25877094 -30.52298656 14.05090461 -35.80078125 20.38671875 Z " fill="#020202" transform="translate(394.125,191.625)"/>
<path d="M0 0 C1.32229189 2.64458379 1.09677194 4.67761301 1.0625 7.625 C1.05347656 8.62789062 1.04445312 9.63078125 1.03515625 10.6640625 C1.02355469 11.43492187 1.01195312 12.20578125 1 13 C1.66 13 2.32 13 3 13 C4.32 24.88 5.64 36.76 7 49 C7.66 49 8.32 49 9 49 C9.309375 48.38125 9.61875 47.7625 9.9375 47.125 C10.625 45.75 11.3125 44.375 12 43 C12.66 43 13.32 43 14 43 C14.96004525 36.19106369 15.91988243 28.70213503 14 22 C12.09273545 20.83021953 12.09273545 20.83021953 10 20 C7.6603056 16.4904584 7.534663 15.13115847 8 11 C10.12081626 7.43121527 12.75754538 4.58929829 16 2 C19.375 1.8125 19.375 1.8125 22 3 C24 5 24 5 24 8 C24.928125 8.3403125 24.928125 8.3403125 25.875 8.6875 C28.67417035 10.41639933 29.10812102 11.87842357 30 15 C30 16.32 30 17.64 30 19 C30.66 19 31.32 19 32 19 C34.9481667 29.68710429 34.9481667 40.31289571 32 51 C31.34 51 30.68 51 30 51 C29.855625 51.969375 29.71125 52.93875 29.5625 53.9375 C27.72964362 60.28796013 22.2047923 65.07279382 16.6875 68.390625 C6.01386586 73.35682977 -3.40274854 74.07049529 -14.63671875 70.390625 C-21.61844835 67.50387037 -28.12365664 63.47854492 -31.6875 56.625 C-33 53 -33 53 -33 51 C-33.66 51 -34.32 51 -35 51 C-36.8317103 45.53394387 -37.30784327 40.74576504 -37.25 35 C-37.25773438 34.23171875 -37.26546875 33.4634375 -37.2734375 32.671875 C-37.25668263 27.74594371 -36.56563275 23.67204694 -35 19 C-34.34 19 -33.68 19 -33 19 C-32.938125 18.278125 -32.87625 17.55625 -32.8125 16.8125 C-31.72804688 13.05862381 -29.90561133 11.58276563 -27 9 C-25.63875 7.7315625 -25.63875 7.7315625 -24.25 6.4375 C-16.65368723 0.3450258 -9.56476533 -0.5826253 0 0 Z M-15 24 C-15 24.66 -15 25.32 -15 26 C-15.66 26 -16.32 26 -17 26 C-20.17028547 31.83332527 -20.72774175 36.52630096 -19 43 C-17.42320524 46.17313656 -15.45860878 48.37790184 -12.11328125 49.8046875 C-9.99690531 50.46431481 -9.99690531 50.46431481 -7 51 C-7.31931239 46.66550422 -7.65531095 42.33254981 -8 38 C-8.0721875 37.04996094 -8.144375 36.09992187 -8.21875 35.12109375 C-8.61691619 30.46397137 -9.26663237 26.39119799 -11 22 C-12.46225016 21.90754997 -12.46225016 21.90754997 -15 24 Z " fill="#020202" transform="translate(198,545)"/>
<path d="M0 0 C7.33764676 -0.37031114 13.20793937 0.17103666 20 3 C20.69738281 3.28617188 21.39476562 3.57234375 22.11328125 3.8671875 C23.75142021 4.55658466 25.37731671 5.27497129 27 6 C27 6.66 27 7.32 27 8 C28.0209375 8.2784375 28.0209375 8.2784375 29.0625 8.5625 C33.11926069 10.54772332 36.23701516 13.42484094 39 17 C39 17.99 39 18.98 39 20 C40.485 20.495 40.485 20.495 42 21 C44.02532117 24.97563044 45 27.5050702 45 32 C45.66 32 46.32 32 47 32 C47 36.95 47 41.9 47 47 C46.34 47 45.68 47 45 47 C44.896875 48.03125 44.79375 49.0625 44.6875 50.125 C43.19970658 58.51074476 38.0663118 65.04268233 31.25 70 C29 71 29 71 26 71 C26 71.66 26 72.32 26 73 C16.88322405 76.55811475 5.65070129 76.49326257 -3.5 73 C-9.07749146 70.3114026 -13.91718322 66.67049495 -18 62 C-18 61.34 -18 60.68 -18 60 C-18.66 60 -19.32 60 -20 60 C-20.67667998 58.75539217 -21.34094719 57.50403104 -22 56.25 C-22.37125 55.55390625 -22.7425 54.8578125 -23.125 54.140625 C-24 52 -24 52 -24 48 C-24.66 48 -25.32 48 -26 48 C-27.38488678 36.21780941 -26.21640419 28.32185146 -20 18 C-17.80078125 15.63671875 -17.80078125 15.63671875 -16 14 C-11.07184774 15.23203807 -7.8170616 17.44011117 -3.9296875 20.5625 C-2.02721009 21.97973014 -0.149035 23.00666826 2 24 C2 24.66 2 25.32 2 26 C2.86496094 26.23847656 3.72992188 26.47695313 4.62109375 26.72265625 C8.36964899 28.13974014 10.91788871 29.96644416 14.0625 32.4375 C17.60873138 35.20785064 21.08900331 37.76822024 25 40 C25.315109 34.7481833 24.8689708 31.45185123 22 27 C15.69711743 20.87719979 8.6327506 18.39966438 0 18 C-0.50588147 16.08487728 -1.00448391 14.16783078 -1.5 12.25 C-1.7784375 11.18265625 -2.056875 10.1153125 -2.34375 9.015625 C-3 6 -3 6 -3 2 C-2.01 2 -1.02 2 0 2 C0 1.34 0 0.68 0 0 Z M-6 36 C-8.1519437 39.22791555 -8.20086443 40.28400809 -8 44 C-7.34 44 -6.68 44 -6 44 C-5.896875 44.928125 -5.79375 45.85625 -5.6875 46.8125 C-4.99468505 50.02464205 -4.6120831 51.11930017 -2 53 C-1.34 53 -0.68 53 0 53 C0 53.66 0 54.32 0 55 C5.06083687 57.20600581 9.70355585 57.50318129 15 56 C16.75401357 54.53931663 16.75401357 54.53931663 18 53 C15.32752366 50.65712582 15.32752366 50.65712582 12 50 C11.67 49.01 11.34 48.02 11 47 C8.59183643 45.15888483 8.59183643 45.15888483 5.6875 43.4375 C4.72199219 42.83808594 3.75648438 42.23867188 2.76171875 41.62109375 C0.12272337 40.02486417 0.12272337 40.02486417 -2.23046875 38.91015625 C-4 38 -4 38 -6 36 Z " fill="#020202" transform="translate(336,785)"/>
<path d="M0 0 C1 1 1 1 1.26953125 3.828125 C1.18641178 9.35627392 -0.69368301 14.51245932 -2.3125 19.75 C-2.93453676 21.80700674 -3.55563569 23.86429731 -4.17578125 25.921875 C-4.48104736 26.92758545 -4.78631348 27.9332959 -5.10083008 28.96948242 C-6.25238839 32.85063728 -7.31425922 36.7528099 -8.35742188 40.66430664 C-9.13232202 43.48097444 -10.03173476 46.24416817 -11 49 C-10.236875 48.67 -9.47375 48.34 -8.6875 48 C-6 47 -6 47 -3 47 C-2.7525 46.484375 -2.505 45.96875 -2.25 45.4375 C-1 43 -1 43 1.0625 39.875 C5.23322044 32.57623924 4.10804301 24.01200329 3 16 C4.74404788 14.98965502 6.49549561 13.99207578 8.25 13 C9.22453125 12.443125 10.1990625 11.88625 11.203125 11.3125 C14 10 14 10 18 10 C18.495 11.98 18.495 11.98 19 14 C19.66 14 20.32 14 21 14 C24.61130078 23.70537086 23.49454284 34.13319216 21 44 C20.34 44 19.68 44 19 44 C18.896875 44.886875 18.79375 45.77375 18.6875 46.6875 C17.98284093 50.0826755 17.0445434 52.21942098 15 55 C14.34 55 13.68 55 13 55 C12.7525 55.763125 12.505 56.52625 12.25 57.3125 C10.87869328 60.26080945 9.7648921 61.35834532 7 63 C6.34 63 5.68 63 5 63 C4.505 64.485 4.505 64.485 4 66 C-1.77910147 69.12643926 -8.13478525 69.46883525 -14.5625 69.375 C-15.36107422 69.38660156 -16.15964844 69.39820313 -16.98242188 69.41015625 C-26.803804 69.36212993 -34.69019989 65.50303288 -42 59 C-48.02277437 51.61404625 -50.58860453 42.82753533 -50.2421875 33.3203125 C-48.90127469 20.47350271 -45.07661386 10.48556956 -35 2 C-31.58160951 0.24911706 -29.93615981 0 -26 0 C-26 -0.66 -26 -1.32 -26 -2 C-17.98164196 -4.51715543 -7.26970859 -4.32720749 0 0 Z M-29 22 C-32.42829758 26.67495125 -32.74223453 31.38309003 -32 37 C-30.9341509 40.47152779 -30.9341509 40.47152779 -29 43 C-26.94705753 43.68552889 -26.94705753 43.68552889 -25 44 C-21.16590526 35.02782907 -17.33949067 25.90763988 -18 16 C-22.16981534 16 -25.85122715 19.49136229 -29 22 Z " fill="#020202" transform="translate(221,400)"/>
<path d="M0 0 C0.87301758 0.00322266 1.74603516 0.00644531 2.64550781 0.00976562 C9.05326018 0.14849263 14.46244185 1.13641309 20.0625 4.4375 C20.0625 5.0975 20.0625 5.7575 20.0625 6.4375 C20.64 6.685 21.2175 6.9325 21.8125 7.1875 C27.61280803 10.40989335 31.52162124 16.33639191 33.82421875 22.46484375 C36.72237793 33.50251382 36.21896484 45.78666207 30.73828125 55.875 C25.42375327 64.35592654 18.41371997 69.56318232 8.703125 72.0390625 C5.56498749 72.51256846 2.5481336 72.56973634 -0.625 72.5625 C-1.76324219 72.56507813 -2.90148437 72.56765625 -4.07421875 72.5703125 C-6.9375 72.4375 -6.9375 72.4375 -8.9375 71.4375 C-9.0634864 62.1984976 -8.80805884 53.04251229 -8.29541016 43.81835938 C-7.91324947 36.68285374 -7.83101255 29.58399114 -7.9375 22.4375 C-9.3296875 23.5203125 -9.3296875 23.5203125 -10.75 24.625 C-11.27207031 25.03105469 -11.79414062 25.43710937 -12.33203125 25.85546875 C-15.54703721 29.02354032 -16.83969572 31.54671393 -17.3359375 36.06640625 C-17.32820312 37.36449219 -17.32046875 38.66257812 -17.3125 40 C-17.32023438 41.30066406 -17.32796875 42.60132813 -17.3359375 43.94140625 C-16.91286629 47.65364875 -16.2464253 48.66561759 -13.9375 51.4375 C-13.25 54.1875 -13.25 54.1875 -12.9375 56.4375 C-14.22377711 57.61010611 -15.51669783 58.7754283 -16.8125 59.9375 C-17.53179688 60.5871875 -18.25109375 61.236875 -18.9921875 61.90625 C-20.9375 63.4375 -20.9375 63.4375 -22.9375 63.4375 C-23.2675 64.4275 -23.5975 65.4175 -23.9375 66.4375 C-25.2575 66.1075 -26.5775 65.7775 -27.9375 65.4375 C-27.9375 64.7775 -27.9375 64.1175 -27.9375 63.4375 C-28.5975 63.4375 -29.2575 63.4375 -29.9375 63.4375 C-30.75248562 61.8345947 -31.56439927 60.23012722 -32.375 58.625 C-32.82746094 57.73167969 -33.27992188 56.83835937 -33.74609375 55.91796875 C-38.46121796 46.10123475 -37.23246948 31.75244892 -33.875 21.625 C-31.57413422 16.13429756 -28.70231697 11.13636239 -23.9375 7.4375 C-23.22722656 7.26863281 -22.51695312 7.09976563 -21.78515625 6.92578125 C-20.87056641 6.68408203 -20.87056641 6.68408203 -19.9375 6.4375 C-19.6075 5.4475 -19.2775 4.4575 -18.9375 3.4375 C-13.07755643 0.25048391 -6.52480335 -0.07525725 0 0 Z M8.0625 21.4375 C5.70241183 24.97763225 5.82786356 26.44871955 5.8671875 30.63671875 C5.87363281 31.84521484 5.88007812 33.05371094 5.88671875 34.29882812 C5.90347656 35.56146484 5.92023437 36.82410156 5.9375 38.125 C5.94652344 39.39923828 5.95554687 40.67347656 5.96484375 41.98632812 C5.98844359 45.13690627 6.02136806 48.28710983 6.0625 51.4375 C7.16722656 51.00179687 8.27195312 50.56609375 9.41015625 50.1171875 C10.03156494 49.87210449 10.65297363 49.62702148 11.29321289 49.37451172 C14.34126785 47.76026652 15.55723008 45.44803985 17.0625 42.4375 C17.39959062 39.68491188 17.39959062 39.68491188 17.0625 37.4375 C17.7225 37.4375 18.3825 37.4375 19.0625 37.4375 C19.0625 36.4475 19.0625 35.4575 19.0625 34.4375 C18.4025 34.4375 17.7425 34.4375 17.0625 34.4375 C17.041875 33.40625 17.02125 32.375 17 31.3125 C15.7766781 26.25610283 13.29101657 24.26687506 9.0625 21.4375 C8.7325 21.4375 8.4025 21.4375 8.0625 21.4375 Z " fill="#010101" transform="translate(902.9375,516.5625)"/>
<path d="M0 0 C4.25463495 0.3039025 6.18728534 3.05007975 9 6 C10.36125 7.0209375 10.36125 7.0209375 11.75 8.0625 C14.23770168 10.20468755 14.29224513 10.96676485 15 14 C16.31403276 14.70394612 17.6520257 15.36345658 19 16 C20.70993434 17.6222454 22.37347684 19.29413425 24 21 C25.2684375 22.2375 25.2684375 22.2375 26.5625 23.5 C28.89448943 25.89178403 30.91515471 28.39394339 33 31 C35.45979696 33.52286867 37.97723584 35.97780495 40.5 38.4375 C41.325 39.283125 42.15 40.12875 43 41 C43.48210937 41.48597656 43.96421875 41.97195313 44.4609375 42.47265625 C45.875 44 45.875 44 48 47 C47.8125 49.875 47.8125 49.875 47 52 C46.34 52 45.68 52 45 52 C44.62875 52.9590625 44.62875 52.9590625 44.25 53.9375 C42.67012061 56.544301 41.83219689 56.29195078 39 57 C38.690625 57.66 38.38125 58.32 38.0625 59 C37 61 37 61 34.4375 61.8125 C33.633125 61.874375 32.82875 61.93625 32 62 C31.67 61.67 31.34 61.34 31 61 C30.34 62.98 29.68 64.96 29 67 C28.34 67 27.68 67 27 67 C26.79375 67.845625 26.5875 68.69125 26.375 69.5625 C24.69657917 73.75855209 22.42361427 77.02686129 19 80 C16.8046875 80.69921875 16.8046875 80.69921875 15 81 C15 81.66 15 82.32 15 83 C9.60823579 85.68522645 5.42806726 86.47084908 -0.5625 86.375 C-1.29146484 86.38660156 -2.02042969 86.39820313 -2.77148438 86.41015625 C-7.57434243 86.38421822 -10.78457006 85.51727096 -15 83 C-15 82.34 -15 81.68 -15 81 C-15.7425 80.773125 -16.485 80.54625 -17.25 80.3125 C-20.57697408 78.72462601 -21.81216307 76.93990588 -24 74 C-26.35477895 71.52446315 -28.658177 69.26086492 -31.375 67.1875 C-34.37081112 64.69099073 -36.76453967 61.92294052 -39.29296875 58.96484375 C-41.42134528 56.51501905 -43.67290586 54.26060573 -46 52 C-48 50 -48 50 -48.375 47.625 C-47.887871 44.21509703 -46.65554604 43.10881598 -44 41 C-43.34 41 -42.68 41 -42 41 C-41.773125 40.4225 -41.54625 39.845 -41.3125 39.25 C-39.66961977 36.4336339 -37.60466773 34.91922886 -35 33 C-30.5937814 34.34634457 -28.56922298 36.19374374 -26 40 C-26 40.66 -26 41.32 -26 42 C-25.443125 42.226875 -24.88625 42.45375 -24.3125 42.6875 C-21.34144815 44.37377267 -19.35477875 46.530354 -17 49 C-16.154375 49.825 -15.30875 50.65 -14.4375 51.5 C-12 54 -12 54 -10.1875 56.5 C-6.23624742 61.01571723 -1.08454217 64.42957417 5 65 C5 64.34 5 63.68 5 63 C5.928125 62.4225 6.85625 61.845 7.8125 61.25 C11.44382375 58.68671265 12.62612889 57.20242929 14 53 C14.05321138 48.485901 13.19843837 43.95718906 11 40 C8.67398476 37.93897879 8.67398476 37.93897879 6 36 C4.31237149 34.3545622 2.6459651 32.68711423 1 31 C0.13375 30.175 -0.7325 29.35 -1.625 28.5 C-3.90075315 26.10447037 -5.31055584 23.81574026 -7 21 C-7.86625 20.154375 -8.7325 19.30875 -9.625 18.4375 C-12 16 -12 16 -13.0625 14 C-12.96129256 10.76136181 -11.18938597 9.25020225 -9 7 C-8.01 6.67 -7.02 6.34 -6 6 C-4.29319053 4.37446717 -2.62339805 2.70884005 -1 1 C-0.67 0.67 -0.34 0.34 0 0 Z " fill="#010101" transform="translate(794,740)"/>
<path d="M0 0 C3.42049406 2.79268186 6.43643285 5.90732687 8.9140625 9.57421875 C8.9140625 10.56421875 8.9140625 11.55421875 8.9140625 12.57421875 C9.5740625 12.57421875 10.2340625 12.57421875 10.9140625 12.57421875 C14.84556805 21.91154443 15.63831356 32.29290485 12.4140625 42.01171875 C11.9190625 43.18734375 11.4240625 44.36296875 10.9140625 45.57421875 C10.2540625 45.57421875 9.5940625 45.57421875 8.9140625 45.57421875 C8.8109375 46.29609375 8.7078125 47.01796875 8.6015625 47.76171875 C6.54365701 56.18042301 -0.26481731 60.56577002 -7.2734375 64.88671875 C-15.5193938 69.83429253 -26.68070086 70.06099433 -35.98046875 67.90234375 C-38.1484375 67.07421875 -38.1484375 67.07421875 -41.0859375 65.57421875 C-41.0859375 64.91421875 -41.0859375 64.25421875 -41.0859375 63.57421875 C-41.9315625 63.40921875 -42.7771875 63.24421875 -43.6484375 63.07421875 C-50.66790255 60.01117945 -54.70331857 53.20935589 -58.0859375 46.57421875 C-59.44920828 42.48440641 -59.30979559 38.67072352 -59.3359375 34.38671875 C-59.3565625 33.56107422 -59.3771875 32.73542969 -59.3984375 31.88476562 C-59.46796232 20.85639065 -54.65389734 12.81066052 -47.5234375 4.63671875 C-45.08368906 2.57231622 -43.0273883 1.71811628 -40.0859375 0.57421875 C-39.7559375 -0.41578125 -39.4259375 -1.40578125 -39.0859375 -2.42578125 C-27.88670741 -8.59678558 -10.29873836 -7.03939982 0 0 Z M-33.0859375 16.57421875 C-35.57129002 19.17276139 -35.57129002 19.17276139 -36.0859375 22.57421875 C-36.7459375 22.57421875 -37.4059375 22.57421875 -38.0859375 22.57421875 C-40.29984557 27.78341421 -40.08171557 31.14270201 -39.0859375 36.57421875 C-38.7559375 37.23421875 -38.4259375 37.89421875 -38.0859375 38.57421875 C-37.4259375 38.57421875 -36.7659375 38.57421875 -36.0859375 38.57421875 C-35.8384375 39.17234375 -35.5909375 39.77046875 -35.3359375 40.38671875 C-33.90521225 42.89048794 -32.5167793 44.05494263 -30.0859375 45.57421875 C-29.4259375 45.57421875 -28.7659375 45.57421875 -28.0859375 45.57421875 C-28.0859375 46.23421875 -28.0859375 46.89421875 -28.0859375 47.57421875 C-20.84357865 48.88069854 -20.84357865 48.88069854 -14.0859375 46.57421875 C-8.52266404 41.63409364 -8.52266404 41.63409364 -5.546875 35.05859375 C-5.37572908 29.61304171 -5.69849367 26.28928241 -9.3359375 22.07421875 C-11.13397913 20.21270098 -11.13397913 20.21270098 -13.0859375 18.57421875 C-13.72273438 18.02378906 -14.35953125 17.47335937 -15.015625 16.90625 C-20.21510655 13.56092319 -27.71029311 13.82083991 -33.0859375 16.57421875 Z " fill="#010101" transform="translate(278.0859375,299.42578125)"/>
<path d="M0 0 C2.625 2.375 2.625 2.375 5 5 C5.61875 5.495 6.2375 5.99 6.875 6.5 C8 8 8 8 7.8125 10.4375 C7.05810144 12.81675701 6.29463026 14.8676678 5 17 C4.34 17.33 3.68 17.66 3 18 C2.21984379 19.82510997 1.52204594 21.68606676 0.875 23.5625 C0.52179687 24.57441406 0.16859375 25.58632813 -0.1953125 26.62890625 C-0.46085938 27.41136719 -0.72640625 28.19382812 -1 29 C-1.66 29 -2.32 29 -3 29 C-3 32.96 -3 36.92 -3 41 C-0.18220877 42.22048628 -0.18220877 42.22048628 2.0625 41.5625 C4.66815205 39.4611677 4.91226634 37.23027479 5.5625 34.04296875 C6.09363784 31.56274472 6.9851777 29.31959384 8 27 C8.66 27 9.32 27 10 27 C10.103125 26.278125 10.20625 25.55625 10.3125 24.8125 C11.85447212 18.50443223 15.85949343 14.69181835 21 11 C26.61049932 9.12983356 32.75653674 9.19573959 38.3125 11.1875 C39.199375 11.785625 40.08625 12.38375 41 13 C42.051875 13.680625 43.10375 14.36125 44.1875 15.0625 C48.95439193 19.29139625 49.71486748 25.11699341 50.31640625 31.19921875 C50.64977395 40.63029852 48.60909731 49.03122801 46 58 C45.34 58 44.68 58 44 58 C43.71125 59.0725 43.4225 60.145 43.125 61.25 C41 68.33333333 41 68.33333333 37 71 C34.5625 71.4375 34.5625 71.4375 32 71 C30 68.6875 30 68.6875 28 66 C27.0925 65.505 26.185 65.01 25.25 64.5 C23 63 23 63 22.375 60.6875 C23.1025022 57.55924055 24.58115249 56.00611057 26.6875 53.6484375 C31.56198777 47.52631298 31.37158089 40.4866668 31 33 C29.68 33 28.36 33 27 33 C26.46890625 34.07378906 25.9378125 35.14757812 25.390625 36.25390625 C24.67719255 37.69015842 23.96364471 39.12635328 23.25 40.5625 C22.90195312 41.26697266 22.55390625 41.97144531 22.1953125 42.69726562 C15.59004591 55.96895868 15.59004591 55.96895868 10 61 C9.42121094 61.53496094 8.84242188 62.06992187 8.24609375 62.62109375 C5.23510421 64.4695795 3.07269206 64.36525433 -0.4375 64.3125 C-1.54996094 64.30863281 -2.66242187 64.30476562 -3.80859375 64.30078125 C-9.87297602 63.72922992 -13.03982307 61.56943492 -17 57 C-21.25747332 51.0051019 -21.58921598 46.31060845 -21.4375 39.0625 C-21.44458984 38.11181641 -21.45167969 37.16113281 -21.45898438 36.18164062 C-21.40432136 30.08040669 -20.44236608 25.58430435 -18 20 C-17.5521756 18.69098671 -17.1134827 17.37878311 -16.6875 16.0625 C-14.907317 11.29956358 -12.24922815 6.90993471 -9 3 C-8.34 3 -7.68 3 -7 3 C-7 2.01 -7 1.02 -7 0 C-4.19664415 -1.40167793 -2.9650644 -0.96536981 0 0 Z " fill="#030303" transform="translate(877,585)"/>
<path d="M0 0 C4.86536847 0.47699691 7.93990413 1.32627833 12 4 C14.65863573 5.35263923 17.32332305 6.68404177 20 8 C26.06532522 10.986852 32.08865017 14.03402374 38.04736328 17.22802734 C47.22161382 22.14482281 56.54224338 26.65582393 66 31 C66 31.99 66 32.98 66 34 C66.66 34 67.32 34 68 34 C67.67 34.99 67.34 35.98 67 37 C66.74101721 40.42792492 66.55758845 43.84994315 66.39453125 47.28320312 C66.10079169 52.79841662 66.10079169 52.79841662 65 55 C63.02851078 55.74677622 61.01978207 56.39590993 59 57 C57.76765625 57.37898437 56.5353125 57.75796875 55.265625 58.1484375 C54.61400391 58.34727539 53.96238281 58.54611328 53.29101562 58.75097656 C47.92917248 60.39031521 42.66583396 62.05211412 37.5 64.25 C33.2952469 66.01742164 29.54167534 66.6635796 25 67 C25 67.66 25 68.32 25 69 C22.94037148 69.67548578 20.87715678 70.34004312 18.8125 71 C17.66394531 71.37125 16.51539063 71.7425 15.33203125 72.125 C12.35679188 72.90630553 10.04716104 73.18363306 7 73 C7 73.66 7 74.32 7 75 C5.56445975 75.50559908 4.1264798 76.0042749 2.6875 76.5 C1.88699219 76.7784375 1.08648437 77.056875 0.26171875 77.34375 C-2 78 -2 78 -5 78 C-5.08164159 75.3118751 -5.14079668 72.626277 -5.1875 69.9375 C-5.21263672 69.18533203 -5.23777344 68.43316406 -5.26367188 67.65820312 C-5.33252799 62.35628207 -4.85054315 58.54702025 -2 54 C1.22265625 52.58203125 1.22265625 52.58203125 5.0625 51.8125 C10.52637955 50.60740591 15.57213873 49.1181414 20.73046875 46.9453125 C26.73196836 44.44554846 32.53271428 42.68800912 39 42 C39 41.34 39 40.68 39 40 C38.27039063 39.71406982 37.54078125 39.42813965 36.7890625 39.13354492 C32.44370104 37.36748109 28.2336847 35.32902341 24 33.3125 C23.06897461 32.86914307 22.13794922 32.42578613 21.17871094 31.96899414 C1.56436897 22.56436897 1.56436897 22.56436897 -1 20 C-1.10068462 17.57172387 -1.1387176 15.17801589 -1.125 12.75 C-1.12886719 12.08097656 -1.13273438 11.41195313 -1.13671875 10.72265625 C-1.12944823 7.0219637 -0.87843501 3.59740053 0 0 Z " fill="#020202" transform="translate(162,466)"/>
<path d="M0 0 C3.60722783 0.27747906 5.39708186 1.06835671 8.25 3.25 C8.25 3.91 8.25 4.57 8.25 5.25 C10.23 5.91 12.21 6.57 14.25 7.25 C14.745 9.725 14.745 9.725 15.25 12.25 C14.1053125 12.8996875 14.1053125 12.8996875 12.9375 13.5625 C10.62891798 15.01207476 9.10800899 16.31120801 7.25 18.25 C3.58333333 21.25 3.58333333 21.25 1.25 21.25 C1.25 21.91 1.25 22.57 1.25 23.25 C-4.16176471 27.25 -4.16176471 27.25 -6.75 27.25 C-6.9975 27.86875 -7.245 28.4875 -7.5 29.125 C-9.00002309 31.67503925 -10.1197249 32.01222348 -12.75 33.25 C-13.60464844 34.11431641 -13.60464844 34.11431641 -14.4765625 34.99609375 C-17.20754264 37.70361186 -20.18935588 39.99793126 -23.25 42.3125 C-23.81847656 42.74626953 -24.38695312 43.18003906 -24.97265625 43.62695312 C-26.56219141 44.83846658 -28.15596639 46.04441145 -29.75 47.25 C-30.87921875 48.14525391 -30.87921875 48.14525391 -32.03125 49.05859375 C-33.75 50.25 -33.75 50.25 -35.75 50.25 C-36.08 51.24 -36.41 52.23 -36.75 53.25 C-38.40071396 54.27611949 -40.06970006 55.27308143 -41.75 56.25 C-42.41 56.930625 -43.07 57.61125 -43.75 58.3125 C-45.75 60.25 -45.75 60.25 -48.4375 61.3125 C-49.200625 61.621875 -49.96375 61.93125 -50.75 62.25 C-51.08 63.24 -51.41 64.23 -51.75 65.25 C-54.1484375 67.2578125 -54.1484375 67.2578125 -57.125 69.375 C-58.10210938 70.07882813 -59.07921875 70.78265625 -60.0859375 71.5078125 C-62.75 73.25 -62.75 73.25 -65.75 74.25 C-65.75 74.91 -65.75 75.57 -65.75 76.25 C-67.67587579 77.88139937 -69.59326717 79.38723225 -71.625 80.875 C-72.18058594 81.29523438 -72.73617187 81.71546875 -73.30859375 82.1484375 C-77.48764712 85.25 -77.48764712 85.25 -79.75 85.25 C-79.75 85.91 -79.75 86.57 -79.75 87.25 C-82.75 88.25 -82.75 88.25 -85.75 87.25 C-85.75 86.59 -85.75 85.93 -85.75 85.25 C-87.049375 84.87875 -87.049375 84.87875 -88.375 84.5 C-91.93302254 83.18221387 -94.6726155 81.44813178 -97.75 79.25 C-97.20466911 75.43268377 -95.68170573 73.69308811 -92.75 71.25 C-90 70 -90 70 -87.75 69.25 C-87.75 68.59 -87.75 67.93 -87.75 67.25 C-85.95703125 65.59375 -85.95703125 65.59375 -83.5625 63.75 C-82.78519531 63.1415625 -82.00789062 62.533125 -81.20703125 61.90625 C-78.75 60.25 -78.75 60.25 -76.01171875 59.21875 C-75.26535156 58.8990625 -74.51898437 58.579375 -73.75 58.25 C-73.42 57.26 -73.09 56.27 -72.75 55.25 C-70.77866014 53.87464661 -68.77318078 52.54788956 -66.75 51.25 C-65.65454181 50.34785796 -64.57075913 49.43132367 -63.5 48.5 C-60.75 46.25 -60.75 46.25 -58.75 46.25 C-58.75 45.59 -58.75 44.93 -58.75 44.25 C-57.698125 43.693125 -56.64625 43.13625 -55.5625 42.5625 C-52.06089687 40.5686294 -49.53231625 38.17875395 -46.75 35.25 C-45.09450193 33.90282455 -43.42642527 32.57104272 -41.75 31.25 C-40.90179687 30.55519531 -40.05359375 29.86039063 -39.1796875 29.14453125 C-38.33664062 28.45746094 -37.49359375 27.77039063 -36.625 27.0625 C-35.77679687 26.36769531 -34.92859375 25.67289063 -34.0546875 24.95703125 C-31.75 23.25 -31.75 23.25 -28.75 22.25 C-27.4815625 20.9815625 -27.4815625 20.9815625 -26.1875 19.6875 C-25.383125 18.883125 -24.57875 18.07875 -23.75 17.25 C-23.09 17.25 -22.43 17.25 -21.75 17.25 C-21.523125 16.651875 -21.29625 16.05375 -21.0625 15.4375 C-19.385741 12.64290167 -17.54867413 11.91503397 -14.75 10.25 C-12.80925143 8.73876136 -10.8929793 7.1956612 -9 5.625 C-8.03578125 4.82835937 -7.0715625 4.03171875 -6.078125 3.2109375 C-2.54009338 0.23091758 -2.54009338 0.23091758 0 0 Z " fill="#020202" transform="translate(786.75,177.75)"/>
<path d="M0 0 C2.41033493 0.88285524 4.67202664 1.90727781 7 3 C7 3.66 7 4.32 7 5 C8.0725 5.20625 9.145 5.4125 10.25 5.625 C15.26266876 6.8580629 19.61594449 9.17611769 24.16796875 11.5625 C26.73945309 12.86774998 29.30642735 13.97575299 32 15 C32 15.66 32 16.32 32 17 C33.30517578 17.16822266 33.30517578 17.16822266 34.63671875 17.33984375 C38.06486573 18.01273207 40.67138009 19.05163367 43.8125 20.5625 C44.93914062 21.09875 46.06578125 21.635 47.2265625 22.1875 C47.83145508 22.47882813 48.43634766 22.77015625 49.05957031 23.0703125 C51.12495613 24.05986826 53.19802424 25.03166003 55.2734375 26 C62.90262536 29.56192145 70.5016572 33.16792309 78 37 C77.55846269 41.52575741 76.3068331 44.52918759 73.984375 48.32421875 C72.73195551 50.45631384 71.88150364 52.69452895 71 55 C70.67 55.33 70.34 55.66 70 56 C64.42041614 55.7625709 60.49166494 53.9055149 55.59375 51.31640625 C53.15811833 50.08024982 50.74276119 49.08322295 48.1875 48.125 C44.11182645 46.55350205 40.38056764 44.62114869 36.5625 42.5 C30.87613969 39.35967038 25.17522982 36.99240882 19 35 C19 34.34 19 33.68 19 33 C18.38511719 32.79503906 17.77023438 32.59007812 17.13671875 32.37890625 C13.7578125 31.25260417 10.37890625 30.12630208 7 29 C7 28.34 7 27.68 7 27 C5.783125 26.71125 4.56625 26.4225 3.3125 26.125 C0.08185352 25.32164208 -2.94320935 24.33734591 -6 23 C-6 22.34 -6 21.68 -6 21 C-6.95712891 20.83564453 -6.95712891 20.83564453 -7.93359375 20.66796875 C-9.17302734 20.43013672 -9.17302734 20.43013672 -10.4375 20.1875 C-11.26121094 20.03667969 -12.08492187 19.88585937 -12.93359375 19.73046875 C-13.61550781 19.48941406 -14.29742187 19.24835938 -15 19 C-16.44342388 14.66972837 -14.4808816 11.82252082 -12.6875 7.875 C-12.36587891 7.13378906 -12.04425781 6.39257812 -11.71289062 5.62890625 C-8.66231392 -1.2239293 -7.26364568 -1.42891391 0 0 Z " fill="#020202" transform="translate(184,348)"/>
<path d="M0 0 C3.94139799 0.65327038 7.37869397 1.83814034 11.0625 3.375 C12.08472656 3.79523438 13.10695313 4.21546875 14.16015625 4.6484375 C16.74261955 5.87750532 18.79681707 7.19307299 21 9 C20.45374901 13.9012931 18.8524323 17.75780039 16.5625 22.0625 C14.51817299 25.97833462 12.55788223 29.85869498 11 34 C10.34 34 9.68 34 9 34 C8.896875 34.845625 8.79375 35.69125 8.6875 36.5625 C7.9171146 40.41442701 6.63725486 43.44075031 5 47 C4.34 47 3.68 47 3 47 C2.896875 47.680625 2.79375 48.36125 2.6875 49.0625 C1.85274981 52.62915989 0.50527246 55.66222194 -1 59 C-1.66 59 -2.32 59 -3 59 C-3.10441406 59.85464844 -3.20882812 60.70929688 -3.31640625 61.58984375 C-4.05607045 65.27971147 -5.30341111 68.17845772 -6.9375 71.5625 C-8.74816883 75.33954628 -10.4930924 79.09077593 -12 83 C-12.66 83 -13.32 83 -14 83 C-14.33 84.65 -14.66 86.3 -15 88 C-18.69037278 89.37095624 -20.70883835 88.60010967 -24.25 87.0625 C-25.14203125 86.68222656 -26.0340625 86.30195313 -26.953125 85.91015625 C-27.62859375 85.60980469 -28.3040625 85.30945313 -29 85 C-29 84.34 -29 83.68 -29 83 C-29.969375 82.855625 -30.93875 82.71125 -31.9375 82.5625 C-35 82 -35 82 -36 81 C-35.86334619 74.85057841 -33.31482459 70.2766836 -30.5 64.890625 C-28.81803199 61.64933248 -27.38167142 58.37741904 -26 55 C-25.34 55 -24.68 55 -24 55 C-23.91878906 54.19304687 -23.83757813 53.38609375 -23.75390625 52.5546875 C-22.79487028 48.03280807 -20.96475198 44.25653254 -18.9375 40.125 C-18.56044922 39.34125 -18.18339844 38.5575 -17.79492188 37.75 C-16.87006766 35.83004947 -15.93596022 33.914561 -15 32 C-14.34 32 -13.68 32 -13 32 C-12.92523437 31.20464844 -12.85046875 30.40929687 -12.7734375 29.58984375 C-11.75381897 24.85737187 -9.76090886 20.88501176 -7.625 16.5625 C-6.82433177 14.91854734 -6.02483234 13.27402486 -5.2265625 11.62890625 C-4.65663574 10.45739014 -4.65663574 10.45739014 -4.07519531 9.26220703 C-2.62465874 6.21028335 -1.30103546 3.11828822 0 0 Z " fill="#020202" transform="translate(712,157)"/>
<path d="M0 0 C7 14.77480916 7 14.77480916 7 22 C7.66 22 8.32 22 9 22 C9.67413211 23.91405367 10.3390332 25.83136026 11 27.75 C11.37125 28.81734375 11.7425 29.8846875 12.125 30.984375 C13 34 13 34 13 38 C13.66 38 14.32 38 15 38 C15.32613281 39.01320313 15.65226563 40.02640625 15.98828125 41.0703125 C16.42944236 42.42195504 16.87086242 43.77351307 17.3125 45.125 C17.52583984 45.79015625 17.73917969 46.4553125 17.95898438 47.140625 C19.00865367 50.336633 20.09741491 53.18570429 21.66796875 56.1796875 C23.04264183 59.09028562 23.27959041 60.83130864 23 64 C21.3970947 64.81498562 19.79262722 65.62689927 18.1875 66.4375 C17.29417969 66.88996094 16.40085937 67.34242188 15.48046875 67.80859375 C11.14057385 69.8931102 7.79939353 70.2617851 3 70 C2.34 69.34 1.68 68.68 1 68 C0.6596875 68.44730469 0.319375 68.89460937 -0.03125 69.35546875 C-3.67105097 73.89553964 -7.5560124 77.7238048 -13 80 C-15.74609375 80.12890625 -15.74609375 80.12890625 -18 80 C-18.26554688 79.16855469 -18.53109375 78.33710937 -18.8046875 77.48046875 C-19.15789063 76.39378906 -19.51109375 75.30710937 -19.875 74.1875 C-20.22304688 73.10855469 -20.57109375 72.02960938 -20.9296875 70.91796875 C-21.91959653 67.86684198 -21.91959653 67.86684198 -24 65 C-24 63.68 -24 62.36 -24 61 C-23.01 61 -22.02 61 -21 61 C-21 60.34 -21 59.68 -21 59 C-19.906875 58.5875 -18.81375 58.175 -17.6875 57.75 C-14.44280475 56.38277962 -12.94975511 54.97594201 -11 52 C-10.34 52 -9.68 52 -9 52 C-8.17808793 42.88590843 -10.4608149 36.3085143 -14 28 C-14.74304454 26.00511433 -15.47322315 24.00536595 -16.1875 22 C-17.10712826 19.4328675 -18.0401858 16.90528648 -19.10546875 14.39453125 C-20.19003681 11.49129885 -20.14296486 9.07374456 -20 6 C-16.31262662 4.38677415 -12.61309932 2.80489707 -8.875 1.3125 C-8.25367188 1.06113281 -7.63234375 0.80976562 -6.9921875 0.55078125 C-4.60355662 -0.10960493 -2.46647971 -0.08961258 0 0 Z " fill="#020202" transform="translate(679,826)"/>
<path d="M0 0 C5.74031891 12.48519362 5.74031891 12.48519362 5 19 C4.33613281 19.27972656 3.67226563 19.55945313 2.98828125 19.84765625 C-2.74910204 22.45251202 -7.68393728 24.83222427 -10 31 C-10.36879825 38.62183047 -7.15697789 45.62048666 -4.5703125 52.68359375 C-3.15863159 56.53870049 -1.8224559 60.40487453 -0.5625 64.3125 C-0.06943359 65.82263672 -0.06943359 65.82263672 0.43359375 67.36328125 C1.01857067 70.08644968 1.14787035 71.47242343 0 74 C-6.40390936 77.33003287 -12.75569911 79.13208403 -20 79 C-20.31453125 78.11699219 -20.6290625 77.23398438 -20.953125 76.32421875 C-21.38109375 75.12410156 -21.8090625 73.92398438 -22.25 72.6875 C-22.47743896 72.0488501 -22.70487793 71.4102002 -22.93920898 70.75219727 C-24.28813705 66.97076048 -25.66498889 63.20131478 -27.0625 59.4375 C-28.51419426 55.47303374 -29.78601227 51.48097665 -31 47.4375 C-32.45238808 42.62468461 -34.12864025 38.00008726 -36.0546875 33.359375 C-37.31174842 30.22191717 -38.35798971 27.0308702 -39.38671875 23.8125 C-39.9768279 21.93222226 -39.9768279 21.93222226 -41 20 C-41.039992 18.00039988 -41.04346799 15.99952758 -41 14 C-39.08594633 13.32586789 -37.16863974 12.6609668 -35.25 12 C-34.18265625 11.62875 -33.1153125 11.2575 -32.015625 10.875 C-29 10 -29 10 -25 10 C-25 9.34 -25 8.68 -25 8 C-24.34 8 -23.68 8 -23 8 C-23 8.66 -23 9.32 -23 10 C-22.01 10 -21.02 10 -20 10 C-20 10.66 -20 11.32 -20 12 C-19.34 12 -18.68 12 -18 12 C-17.773125 11.4225 -17.54625 10.845 -17.3125 10.25 C-15.64018419 7.3831729 -13.72780269 5.86288964 -11 4 C-10.01 4 -9.02 4 -8 4 C-7.67 3.01 -7.34 2.02 -7 1 C-4 0 -4 0 0 0 Z " fill="#010101" transform="translate(444,155)"/>
<path d="M0 0 C5.42039575 -0.40652968 9.07015675 0.96006486 14 3 C14 3.66 14 4.32 14 5 C14.845625 5.103125 15.69125 5.20625 16.5625 5.3125 C20.41442701 6.0828854 23.44075031 7.36274514 27 9 C27 9.66 27 10.32 27 11 C28.175625 11.103125 29.35125 11.20625 30.5625 11.3125 C34.82485903 11.82914958 38.14087534 13.1508361 42 15 C42 15.66 42 16.32 42 17 C43.010625 17.103125 44.02125 17.20625 45.0625 17.3125 C49.21218208 18.03704767 52.21356263 19.22269266 56 21 C56 21.66 56 22.32 56 23 C56.94875 23.144375 57.8975 23.28875 58.875 23.4375 C62 24 62 24 64 25 C63.28739906 29.28379643 61.93078264 33.25093853 60.4375 37.3125 C60.08655273 38.28026367 60.08655273 38.28026367 59.72851562 39.26757812 C59.15552993 40.84621219 58.57820536 42.42327026 58 44 C52.01006953 44.3152595 48.36439644 43.68219822 43 41 C43 40.34 43 39.68 43 39 C42.40832031 38.87882813 41.81664062 38.75765625 41.20703125 38.6328125 C36.96196415 37.73255357 32.97560339 36.79543379 29 35 C29 34.34 29 33.68 29 33 C27.6078125 32.9071875 27.6078125 32.9071875 26.1875 32.8125 C21.70984332 32.18184413 17.9841577 30.2763353 13.93359375 28.34375 C9.39658362 26.26554562 4.71252933 24.63161073 0 23 C0 22.34 0 21.68 0 21 C-1.98 20.67 -3.96 20.34 -6 20 C-6.36263859 14.1977825 -5.25684543 10.36000789 -3 5 C-2.34 5 -1.68 5 -1 5 C-0.67 3.35 -0.34 1.7 0 0 Z " fill="#030303" transform="translate(847,647)"/>
<path d="M0 0 C0.87527344 -0.01417969 1.75054688 -0.02835938 2.65234375 -0.04296875 C5.0625 0.1875 5.0625 0.1875 8.0625 2.1875 C8.0625 2.8475 8.0625 3.5075 8.0625 4.1875 C9.0525 4.1875 10.0425 4.1875 11.0625 4.1875 C13.88709941 8.97018825 13.57542197 13.78579053 13.0625 19.1875 C11.79203886 22.46395242 10.92540196 23.63838057 8 25.5 C2.13497965 26.87266434 -2.98142905 27.16553548 -8.4375 24.4375 C-11.58174497 21.60767952 -12.78561522 19.72645017 -13.203125 15.49609375 C-13.19796875 14.54863281 -13.1928125 13.60117187 -13.1875 12.625 C-13.19265625 11.67496094 -13.1978125 10.72492187 -13.203125 9.74609375 C-12.9375 7.1875 -12.9375 7.1875 -10.9375 4.1875 C-9.9475 4.1875 -8.9575 4.1875 -7.9375 4.1875 C-7.6075 3.1975 -7.2775 2.2075 -6.9375 1.1875 C-4.47380468 -0.04434766 -2.7480499 0.02017658 0 0 Z " fill="#020202" transform="translate(595.9375,847.8125)"/>
<path d="M0 0 C2.51606438 1.42679261 3.33342717 2.55966121 5 5 C5.33 5.33 5.66 5.66 6 6 C6.71544484 11.74167122 7.19108857 17.38613556 3.5625 22.1875 C0.40274321 25.25740588 -2.5541836 25.99858373 -6.89453125 26.13671875 C-12.514623 25.77177773 -15.36019041 23.1453387 -19 19 C-19.92350727 16.22947819 -20.16329585 14.43311242 -20.1875 11.5625 C-20.20167969 10.80066406 -20.21585937 10.03882813 -20.23046875 9.25390625 C-19.96184775 6.62688394 -19.4934944 5.1841795 -18 3 C-12.59415605 -1.18762559 -6.54630026 -0.93158888 0 0 Z " fill="#030303" transform="translate(515,189)"/>
<path d="M0 0 C3.12578143 1.6720747 5.39281175 3.7856235 7 7 C7.55950839 12.09978138 7.57722014 15.9225224 5.125 20.5 C1.28032592 25.02314598 -0.52423532 25.67301221 -6.3125 26.4375 C-10.62687734 25.92562472 -12.51007547 24.85687787 -15.61328125 21.9140625 C-18.07287392 18.51913177 -18.27359542 15.09633147 -18 11 C-16.9749469 6.89978761 -14.79120396 4.14010446 -12 1 C-8.27533151 -0.86233425 -4.05504687 -0.57130829 0 0 Z " fill="#030303" transform="translate(930,677)"/>
<path d="M0 0 C0.33 0 0.66 0 1 0 C1 17.82 1 35.64 1 54 C0.67 54 0.34 54 0 54 C-0.02505615 52.9169458 -0.0501123 51.8338916 -0.07592773 50.71801758 C-0.17123976 46.63817705 -0.27114002 42.55845877 -0.37231445 38.47875977 C-0.41520174 36.72455741 -0.45690129 34.97032555 -0.49731445 33.21606445 C-0.55615728 30.6712939 -0.61870236 28.12665448 -0.68359375 25.58203125 C-0.70424896 24.7547049 -0.72490417 23.92737854 -0.7461853 23.07498169 C-0.91442516 17.16052257 -1.33914525 11.32246538 -1.99633789 5.44018555 C-2 3 -2 3 0 0 Z " fill="#0D0D0D" transform="translate(473,873)"/>
<path d="M0 0 C0.33 0 0.66 0 1 0 C1 6.6 1 13.2 1 20 C1.99 19.67 2.98 19.34 4 19 C2.92598892 21.91517292 2.22189824 23.77810176 0 26 C0 17.42 0 8.84 0 0 Z " fill="#171717" transform="translate(436,869)"/>
<path d="M0 0 C0.66 0.33 1.32 0.66 2 1 C1.01 1.66 0.02 2.32 -1 3 C-0.67 2.01 -0.34 1.02 0 0 Z M-3 3 C-2.34 3.33 -1.68 3.66 -1 4 C-3.64 6.64 -6.28 9.28 -9 12 C-9 8.06368636 -7.57142871 6.87394974 -5 4 C-4.34 3.67 -3.68 3.34 -3 3 Z " fill="#141414" transform="translate(884,520)"/>
<path d="M0 0 C0.33 0 0.66 0 1 0 C0.67 5.28 0.34 10.56 0 16 C-0.33 16 -0.66 16 -1 16 C-1.22197585 13.89722877 -1.42713637 11.79267698 -1.625 9.6875 C-1.74101562 8.51574219 -1.85703125 7.34398437 -1.9765625 6.13671875 C-2 3 -2 3 0 0 Z " fill="#191919" transform="translate(473,873)"/>
<path d="M0 0 C0.66 0.33 1.32 0.66 2 1 C0.88200014 2.33920838 -0.24461897 3.67122556 -1.375 5 C-2.00148437 5.7425 -2.62796875 6.485 -3.2734375 7.25 C-4.12808594 8.11625 -4.12808594 8.11625 -5 9 C-5.66 9 -6.32 9 -7 9 C-5.44499019 5.18315774 -2.96404505 2.80804268 0 0 Z " fill="#1E1E1E" transform="translate(186,402)"/>
<path d="M0 0 C1.67180274 0.94934513 3.33733936 1.90973313 5 2.875 C5.928125 3.40867187 6.85625 3.94234375 7.8125 4.4921875 C8.8953125 5.23855469 8.8953125 5.23855469 10 6 C10 6.66 10 7.32 10 8 C6.01328937 6.63312778 3.11505367 4.84804907 0 2 C0 1.34 0 0.68 0 0 Z " fill="#272727" transform="translate(328,803)"/>
<path d="M0 0 C0 3.52032428 -0.70351351 4.4385343 -3 7 C-3.66 7 -4.32 7 -5 7 C-5.33 7.99 -5.66 8.98 -6 10 C-6.66 10 -7.32 10 -8 10 C-6.44303593 6.17836093 -3.96591316 3.81381505 -1 1 C-0.67 0.67 -0.34 0.34 0 0 Z " fill="#313131" transform="translate(774,237)"/>
<path d="M0 0 C0.66 0.33 1.32 0.66 2 1 C1.01 1.66 0.02 2.32 -1 3 C-0.67 2.01 -0.34 1.02 0 0 Z M-2 3 C-2 3.99 -2 4.98 -2 6 C-2.66 6 -3.32 6 -4 6 C-4.66 7.32 -5.32 8.64 -6 10 C-6.33 9.01 -6.66 8.02 -7 7 C-5.35 5.68 -3.7 4.36 -2 3 Z " fill="#151515" transform="translate(801,209)"/>
</svg>
