<svg width="225" height="114" viewBox="0 0 225 114" fill="none" xmlns="http://www.w3.org/2000/svg">
<path d="M9 2C12.0822 2 10.9758 5.13338 11.6667 7.66667C14.1702 16.8462 18.6671 25.6624 20.5556 35C22.2307 43.2828 23.2822 54.599 21.4444 63C18.9217 74.5324 10.6324 78.1568 4 87" stroke="black" stroke-width="3" stroke-linecap="round"/>
<path d="M12 7C12 6.22933 18.7776 11.7705 19.1111 12C28.9369 18.7618 38.5749 25.2987 47.6667 33C53.8898 38.2714 58.4744 41.0598 62.2222 48.5556C67.1043 58.3196 63.1475 73.6399 55.3889 81.1111C48.4168 87.825 43.5202 91.3813 34.1667 94.8889C29.1821 96.7581 20.8201 99.7535 15.5556 98.5C11.8354 97.6142 9.21735 95.9593 6.55555 93.0556C4.32919 90.6268 -2.16363 82.9532 5 85" stroke="black" stroke-width="3" stroke-linecap="round"/>
<path d="M21 100C31.8955 96.684 41.1432 90.257 52 87C58.7086 84.9874 70.4632 82.8802 75.5556 78C82.1558 71.6748 85.4838 61.9714 92.1111 55.5556C96.047 51.7453 100.677 48.0307 102.778 42.7778C104.317 38.9301 107.956 35.449 108.833 31.5C109.341 29.2161 109.302 25.9364 108.944 23.6111C108.555 21.0802 109.562 34.0883 109.667 34.6111C112.384 48.1973 114.796 63.72 120.5 76.4444C124.345 85.0229 126.939 89.9232 136.222 93.4444C139.586 94.7203 150.597 94 147 94" stroke="black" stroke-width="3" stroke-linecap="round"/>
<path d="M74 71C90.1601 71.6733 122.803 78.3942 132 60" stroke="black" stroke-width="3" stroke-linecap="round"/>
<path d="M162 25C138.83 31.1787 120 59.6459 120 83C120 89.8807 118.964 102.04 125.389 106.056C141.353 116.033 171.455 114.289 183.222 98.2222C190.872 87.7773 193.5 71.787 194.111 59.2222C194.625 48.6591 187.521 37.8719 182.222 29C180.106 25.4573 176.434 20.9867 172 20.2222C169.767 19.8372 165.601 24.7951 164.444 26C160.67 29.9316 160.564 33.6508 158.222 38.1111C153.846 46.4475 151.186 53.711 149.056 62.9444C146.795 72.7385 149.293 75.6241 159.944 77.7222C168.64 79.435 179.967 80.7587 188.278 76.7222C193.706 74.0856 198.549 69.0025 203.778 65.8333C209.592 62.3093 216.114 58.8581 220.444 53.4444C221.568 52.04 221.38 51.5399 223 51" stroke="black" stroke-width="3" stroke-linecap="round"/>
</svg>
